<svg version="1.1" id="Layer_1" xmlns="http://www.w3.org/2000/svg" x="0" y="0" viewBox="0 0 452.73 60.07" style="enable-background:new 0 0 452.73 60.07" xml:space="preserve"><style>.st0{fill:none}.st1{fill:#e51b27}</style><path class="st0" d="M323.9 25.55c-2.02 0-3.39 1.4-4.12 4.19-.39 1.5-.58 3.61-.58 6.35 0 2.92.18 5.12.56 6.6.68 2.68 2 4.02 3.95 4.02 1.23 0 2.32-.55 3.29-1.64s1.46-1.86 1.46-2.3v-13.8c0-.46-.42-1.15-1.25-2.05-.83-.91-1.93-1.37-3.31-1.37zm51.41.53c-.48-1.33-1.45-2-2.89-2-1.48 0-2.5.77-3.05 2.3-.55 1.53-.86 3.77-.93 6.71h7.65c-.03-3.34-.29-5.68-.78-7.01zM170.99 42.09c0 1.24.28 2.18.85 2.82.56.64 1.2.96 1.9.96.92 0 1.78-.28 2.58-.83.44-.33.97-.85 1.58-1.56v-8.31c-1.52.37-2.85.95-3.99 1.75-1.95 1.36-2.92 3.08-2.92 5.17zm-41.36-16.01c-.48-1.33-1.45-2-2.89-2-1.48 0-2.5.77-3.05 2.3-.55 1.53-.86 3.77-.93 6.71h7.65c-.04-3.34-.3-5.68-.78-7.01zM447.15.78c-2.65 0-4.81 2.16-4.81 4.81 0 2.65 2.16 4.81 4.81 4.81 2.65 0 4.79-2.16 4.79-4.81 0-2.65-2.14-4.81-4.79-4.81zm3.26 7.85h-1.88l-1.58-2.86h-.35v1.35c0 .82 0 1.22.92 1.22v.29h-3.27v-.28c.81 0 .81-.4.81-1.22V3.86c0-.67 0-1.21-.7-1.21v-.28h3.21c1.34 0 2.36.54 2.36 1.68 0 .84-.6 1.43-1.4 1.62l.97 1.76c.19.34.47.92.9.92v.28z"/><path class="st0" d="M446.96 2.72h-.36v2.67c.09.03.28.05.43.05.79 0 1.23-.68 1.23-1.41 0-.59-.19-1.31-1.3-1.31z"/><path d="M113.4 13.89c2.53 1.45 4.07 4.22 4.6 8.31h1.64l-.06-11.45H85.4l-.05 11.45h1.64c.35-4.06 1.88-6.83 4.6-8.31 1.48-.8 3.6-1.23 6.38-1.31v29.91c0 2.07-.36 3.46-1.09 4.15-.73.69-2.2 1.04-4.42 1.04v1.44h20.24v-1.44c-2.31 0-3.83-.34-4.56-1.03-.73-.69-1.09-2.07-1.09-4.16V12.58c2.8.07 4.93.51 6.35 1.31z"/><path d="M136.34 42.02c-1.07 1.18-1.97 2.02-2.69 2.52-1.19.83-2.44 1.25-3.78 1.25-2.8 0-4.75-1.56-5.86-4.68-.61-1.66-.98-3.63-1.11-5.9h14.5c0-.52-.06-1.27-.19-2.25-.26-2.09-.72-3.79-1.39-5.1-.89-1.74-2.16-3.1-3.8-4.07-1.65-.98-3.4-1.47-5.27-1.47-3.28 0-6.07 1.21-8.4 3.62-2.32 2.41-3.48 5.8-3.48 10.16 0 4.82 1.22 8.34 3.66 10.53 2.44 2.2 5.06 3.3 7.85 3.3 1.94 0 3.66-.36 5.16-1.08 2.31-1.13 4.35-3.13 6.11-6.01l-1.31-.82zm-12.65-15.63c.55-1.53 1.56-2.3 3.05-2.3 1.45 0 2.41.67 2.89 2s.74 3.67.78 7.01h-7.65c.07-2.94.38-5.18.93-6.71z"/><path d="m161.61 46.62-8.48-12.88L159 26.5c.61-.76 1.33-1.32 2.18-1.69.46-.18 1.04-.34 1.74-.47v-1.36h-9.51v1.36c1.03.04 1.78.13 2.23.28s.68.5.68 1.06c0 .44-.23 1-.69 1.66-.46.67-1.67 2.23-3.62 4.68-.73-.98-1.56-2.23-2.51-3.73-.95-1.5-1.43-2.47-1.43-2.89 0-.35.11-.57.33-.65s.99-.22 2.3-.4v-1.36h-14.19v1.36c.68.09 1.2.25 1.55.47.35.22.82.79 1.41 1.69l7.29 11.18c-.61.78-1.39 1.79-2.33 3.05-.94 1.26-1.7 2.24-2.27 2.95-1.39 1.68-2.42 2.76-3.09 3.22-.68.46-1.48.77-2.43.91v1.3h9.59v-1.3c-.94-.04-1.65-.15-2.12-.33-.47-.18-.71-.57-.71-1.17 0-.5.62-1.62 1.86-3.36.6-.84 1.51-2.04 2.72-3.59.42.65.89 1.36 1.4 2.12.51.76.9 1.35 1.18 1.78.5.78.86 1.38 1.08 1.8.39.7.58 1.21.58 1.53 0 .48-.23.79-.69.94-.46.15-1.09.24-1.88.28v1.3h13.67v-1.3c-.42-.16-.76-.33-1.01-.48-.27-.17-.5-.4-.7-.72z"/><path d="m200.92 33.15-3.11-1.5c-1.5-.72-2.51-1.42-3.05-2.11-.55-.67-.83-1.33-.83-2 0-.81.31-1.57.93-2.27.62-.7 1.56-1.05 2.81-1.05 1.63 0 3.05.58 4.27 1.75 1.22 1.16 2.1 2.71 2.63 4.63h1.44v-8.21h-1.25c-.13.35-.29.62-.49.82-.19.19-.52.29-.98.29-.33 0-1.17-.2-2.52-.6-1.35-.4-2.62-.6-3.83-.6-2.75 0-4.9.8-6.43 2.4-1.53 1.6-2.3 3.5-2.3 5.7 0 1.74.49 3.24 1.47 4.52.96 1.28 2.55 2.46 4.77 3.55l4.21 2.05c.91.44 1.56.86 1.97 1.25.74.72 1.11 1.59 1.11 2.61 0 1.07-.34 1.93-1.03 2.59-.68.66-1.76.98-3.22.98-1.59 0-3.14-.56-4.66-1.68-1.52-1.12-2.55-3.04-3.1-5.75h-1.58v5.01l-.01-.02c-.37.37-.64.6-.82.68-.18.08-.38.13-.6.13-.26 0-.49-.14-.71-.43-.21-.28-.32-.63-.32-1.04V31.1c0-3.36-1.07-5.67-3.22-6.93-2.16-1.24-4.85-1.86-8.07-1.86-2.99 0-5.52.64-7.57 1.91-2.05 1.27-3.08 3-3.08 5.17 0 1.22.38 2.15 1.15 2.79.77.64 1.7.97 2.79.97.94 0 1.77-.29 2.48-.87s1.07-1.41 1.07-2.48c0-.42-.08-.83-.23-1.21-.16-.38-.36-.72-.62-1.04l-.33-.39c-.15-.17-.26-.32-.33-.47-.07-.15-.11-.33-.11-.56 0-.57.33-1.05.98-1.43.66-.38 1.49-.57 2.51-.57 1.81 0 3.07.4 3.78 1.21.71.8 1.07 2.05 1.07 3.73v4.13c-5.25 1.52-9.1 3.03-11.56 4.53-2.46 1.5-3.69 3.53-3.69 6.08 0 2.09.67 3.63 2.02 4.63 1.35.99 2.8 1.48 4.35 1.48 1.16 0 2.35-.2 3.55-.61 1.98-.65 3.75-1.76 5.32-3.33.2 1.09.53 1.92.97 2.47.78.98 2 1.47 3.69 1.47.94 0 1.84-.16 2.69-.5 1.02-.39 1.96-1 2.84-1.83v2.33h1.36c.3-.59.56-1.01.79-1.26.23-.25.5-.38.82-.38.13 0 .23.01.32.03.08.02.3.09.65.22l.97.33c1.13.39 2.07.66 2.84.82.77.16 1.53.23 2.29.23 3.05 0 5.34-.91 6.86-2.73 1.53-1.82 2.29-3.78 2.29-5.89 0-2.16-.74-3.98-2.22-5.46-.87-.86-2.27-1.76-4.19-2.68zM177.9 43.48c-.61.7-1.14 1.22-1.58 1.56-.79.56-1.65.83-2.58.83-.7 0-1.34-.32-1.9-.96-.56-.64-.85-1.58-.85-2.82 0-2.09.97-3.82 2.91-5.17 1.15-.8 2.48-1.38 3.99-1.75v8.31zm70.71 1.56c-2.51 1.63-5.22 2.44-8.14 2.44-4.76 0-8.02-2.46-9.77-7.37-.94-2.62-1.41-5.97-1.41-10.03 0-5.53.8-9.93 2.39-13.21 1.6-3.28 4.29-4.92 8.1-4.92 3.36 0 6.37 1.53 9.03 4.6 1.42 1.66 2.81 3.94 4.18 6.82h1.44V10.09h-1.58c-.11.61-.38 1.19-.82 1.75s-1.01.83-1.74.83c-.28 0-1.62-.44-4.05-1.32-2.42-.88-4.81-1.32-7.18-1.32-5.47 0-10.09 1.79-13.86 5.38-4.01 3.83-6.01 8.83-6.01 15 0 6.23 2.1 11.18 6.29 14.86 3.79 3.33 8.48 4.99 14.08 4.99 3.66 0 6.99-.99 9.98-2.97 1.68-1.11 3.63-2.9 5.85-5.38l-1.69-1.39c-1.96 2.07-3.65 3.58-5.09 4.52zm42.99-26.33c1.2 0 2.23-.43 3.09-1.29.86-.86 1.29-1.9 1.29-3.12 0-1.22-.43-2.26-1.29-3.12-.86-.86-1.89-1.29-3.09-1.29-1.22 0-2.26.43-3.12 1.29-.86.86-1.29 1.9-1.29 3.12 0 1.22.43 2.26 1.29 3.12.86.86 1.9 1.29 3.12 1.29z"/><path d="M308.27 44.32V10.75h-10.75v1.36c1.05.24 1.77.55 2.16.92.39.37.58 1.17.58 2.38v28.91c0 1.26-.21 2.08-.63 2.48-.37.35-.97.64-1.79.87-.8-.19-1.38-.44-1.7-.74-.37-.35-.55-1.15-.55-2.38V22.98h-10.9v1.36c1.15.21 1.91.52 2.3.94.39.42.58 1.21.58 2.36v16.69c0 1.29-.28 2.19-.83 2.69-.31.28-.87.5-1.64.67-.84-.22-1.47-.49-1.85-.85-.43-.4-.65-1.23-.65-2.51V30.68c0-3.05-.71-5.21-2.14-6.47-1.42-1.27-3.22-1.9-5.41-1.9-1.61 0-3.05.38-4.34 1.15-1.28.77-2.51 1.85-3.67 3.26V10.75h-10.98v1.36c1.2.15 2 .45 2.41.91.41.46.61 1.25.61 2.39v28.91c0 1.29-.24 2.16-.74 2.59-.49.43-1.25.72-2.29.85v1.36h13.67v-1.36c-1.01-.21-1.71-.48-2.08-.83-.37-.35-.56-1.15-.56-2.38v-15.2c0-.33.52-.95 1.57-1.86 1.04-.9 2.06-1.36 3.04-1.36 1.31 0 2.19.58 2.63 1.75.26.65.39 1.62.39 2.91v13.75c0 1.24-.18 2.03-.55 2.38s-1.06.63-2.08.83v1.36h38.96v-1.36c-1.03-.26-1.75-.58-2.16-.97-.41-.38-.61-1.2-.61-2.46zm53.81-17.6c0-1.44-.47-2.54-1.4-3.29s-1.99-1.12-3.15-1.12c-1.56 0-2.93.46-4.11 1.39-1.18.92-2.38 2.17-3.58 3.74v-4.46h-10.75v1.36c1.2.15 2 .44 2.41.87.4.43.61 1.24.61 2.43v15.44l-.06 1.66c-.04 1.11-.27 1.86-.69 2.25-.34.31-.89.53-1.65.68v-.97c-1.3-.11-2.16-.39-2.61-.84-.45-.45-.67-1.26-.67-2.43V10.75H324.2v1.36c1.74.07 2.88.28 3.44.63s.83 1.24.83 2.67v10.4c-1.09-1.14-1.99-1.94-2.71-2.38-1.17-.74-2.5-1.11-3.99-1.11-3 0-5.56 1.3-7.69 3.9-2.13 2.6-3.2 6.14-3.2 10.63 0 4.03 1.02 7.22 3.07 9.56 2.05 2.35 4.46 3.52 7.24 3.52 1.63 0 3.14-.43 4.55-1.28.89-.54 1.87-1.36 2.94-2.47v3.74c2.33-.65 3.96-1.05 4.88-1.2.86-.15 2.71-.36 5.53-.64v1.05h15.11v-1.36c-1.63-.15-2.71-.45-3.26-.92-.55-.47-.82-1.64-.82-3.51V32.57c0-1.74.38-3.08 1.15-4.01.77-.93 1.53-1.4 2.29-1.4.35 0 .97.56 1.85 1.69.88 1.13 1.92 1.69 3.12 1.69 1.06 0 1.91-.36 2.57-1.08.65-.72.98-1.63.98-2.74zm-33.61 16.05c0 .45-.49 1.21-1.46 2.3s-2.07 1.64-3.29 1.64c-1.95 0-3.26-1.34-3.95-4.02-.37-1.48-.56-3.68-.56-6.6 0-2.73.19-4.85.58-6.35.73-2.79 2.1-4.19 4.12-4.19 1.37 0 2.48.45 3.31 1.36.83.91 1.25 1.59 1.25 2.05v13.81z"/><path d="M382.03 42.02c-1.07 1.18-1.97 2.02-2.69 2.52-1.18.83-2.44 1.25-3.78 1.25-2.8 0-4.75-1.56-5.86-4.68-.61-1.66-.98-3.63-1.11-5.9h14.5c0-.52-.07-1.27-.2-2.25-.26-2.09-.72-3.79-1.39-5.1-.89-1.74-2.16-3.1-3.8-4.07-1.65-.98-3.41-1.47-5.28-1.47-3.27 0-6.07 1.21-8.39 3.62-2.32 2.41-3.48 5.8-3.48 10.16 0 4.82 1.22 8.34 3.66 10.53 2.44 2.2 5.06 3.3 7.86 3.3 1.94 0 3.66-.36 5.16-1.08 2.31-1.13 4.35-3.13 6.11-6.01l-1.31-.82zm-12.65-15.63c.55-1.53 1.56-2.3 3.05-2.3 1.45 0 2.41.67 2.89 2s.74 3.67.78 7.01h-7.65c.07-2.94.38-5.18.93-6.71z"/><path d="M408.99 44.54V30.82c0-3.16-.67-5.37-2.01-6.63-1.34-1.26-3.23-1.88-5.67-1.88-1.7 0-3.25.45-4.64 1.34-1.4.9-2.55 2.03-3.45 3.4v-4.08h-10.76v1.36c1.22.15 2.03.45 2.43.89.4.45.6 1.25.6 2.41v16.69c0 1.29-.25 2.16-.74 2.59-.49.43-1.25.72-2.29.85v1.36h13.67v-1.36c-1.02-.21-1.71-.48-2.08-.83s-.55-1.15-.55-2.38v-15.2c.45-.72 1.08-1.44 1.9-2.15.82-.71 1.72-1.07 2.7-1.07 1.31 0 2.19.58 2.64 1.75.26.65.39 1.62.39 2.91v13.75c0 1.24-.18 2.03-.55 2.38s-1.06.63-2.08.83v1.36h13.33v-1.36c-1.02-.13-1.74-.38-2.18-.75-.45-.36-.66-1.18-.66-2.46zm10.43-34.65c-1.46 0-2.61.44-3.46 1.33-.85.89-1.28 2.04-1.28 3.46 0 1.29.4 2.35 1.19 3.17s1.8 1.23 3.02 1.23c.18 0 .59-.05 1.22-.14.37 0 .66.12.86.36.18.26.28.57.28.94 0 1.37-.78 2.83-2.33 4.38-.87.87-2.15 1.9-3.85 3.08l.67 1.25c2.57-1.44 4.57-2.93 6.01-4.46 2.25-2.42 3.38-5.1 3.38-8.04 0-2.03-.55-3.64-1.65-4.81-1.1-1.16-2.45-1.75-4.06-1.75zm18.81 23.26-3.1-1.5c-1.5-.72-2.51-1.42-3.05-2.11-.55-.67-.83-1.33-.83-2 0-.81.31-1.57.93-2.27.62-.7 1.56-1.05 2.81-1.05 1.62 0 3.05.58 4.27 1.75 1.22 1.16 2.1 2.71 2.64 4.63h1.44v-8.21h-1.25c-.13.35-.29.62-.49.82-.19.19-.52.29-.98.29-.33 0-1.18-.2-2.52-.6-1.35-.4-2.62-.6-3.83-.6-2.76 0-4.9.8-6.43 2.4-1.54 1.6-2.3 3.5-2.3 5.7 0 1.74.49 3.24 1.47 4.52.96 1.28 2.55 2.46 4.77 3.55l4.21 2.05c.91.44 1.56.86 1.97 1.25.74.72 1.11 1.59 1.11 2.61 0 1.07-.34 1.93-1.03 2.59-.68.66-1.76.98-3.22.98-1.59 0-3.14-.56-4.66-1.68-1.52-1.12-2.55-3.04-3.1-5.75h-1.58v9.4h1.36c.3-.59.56-1.01.79-1.26.23-.25.5-.38.82-.38.13 0 .23.01.32.03.08.02.3.09.65.22l.97.33c1.13.39 2.07.66 2.84.82.77.16 1.53.23 2.29.23 3.05 0 5.34-.91 6.86-2.73s2.29-3.78 2.29-5.89c0-2.16-.74-3.98-2.22-5.46-.89-.86-2.3-1.76-4.22-2.68zM449.5 7.43l-.97-1.76c.79-.19 1.4-.78 1.4-1.62 0-1.14-1.03-1.68-2.36-1.68h-3.21v.29c.7 0 .7.54.7 1.21v3.27c0 .82 0 1.22-.81 1.22v.29h3.27v-.3c-.92 0-.92-.4-.92-1.22V5.78h.35l1.58 2.86h1.88v-.29c-.43 0-.72-.59-.91-.92zm-2.47-2c-.15 0-.34-.02-.43-.05V2.72h.36c1.11 0 1.3.73 1.3 1.3 0 .73-.44 1.41-1.23 1.41z"/><path d="M447.15.1c-3.03 0-5.51 2.46-5.51 5.49 0 3.03 2.48 5.49 5.51 5.49s5.49-2.46 5.49-5.49c0-3.03-2.46-5.49-5.49-5.49zm0 10.3c-2.65 0-4.81-2.16-4.81-4.81 0-2.65 2.16-4.81 4.81-4.81 2.65 0 4.79 2.16 4.79 4.81 0 2.65-2.14 4.81-4.79 4.81z"/><path class="st1" d="M67.67 31.15c-1.15 0-2.18.45-2.94 1.2L52.34 45.14c-4.79 4.14-9.34 6.33-16.4 6.38-6.88-.11-11.37-2.29-16.09-6.37L7.36 32.34c-.76-.74-1.79-1.2-2.94-1.2-2.31 0-4.2 1.88-4.2 4.19 0 1.16.47 2.21 1.23 2.97l16.26 15.85c4.57 3.74 11.05 5.64 18.23 5.64 7.17 0 13.65-1.89 18.23-5.64L70.64 38.3c.76-.76 1.23-1.81 1.23-2.97 0-2.31-1.89-4.18-4.2-4.18z"/><path class="st1" d="M21.46 37.87c4.76 4.54 7.54 7.44 14.44 7.54 7.17.1 9.98-2.97 14.82-7.6l9.58-9.72a4.2 4.2 0 0 0-2.97-7.17c-1.19 0-2.27.5-3.03 1.3L43.44 33.15a10.152 10.152 0 0 1-7.51 3.31c-2.96 0-5.63-1.26-7.48-3.27L17.78 22.22c-.77-.8-1.84-1.3-3.04-1.3-2.32 0-4.19 1.88-4.19 4.2 0 1.16.47 2.21 1.23 2.97l9.68 9.78z"/><path class="st1" d="M33.74 29.47c.56.6 1.36.96 2.25.96.88 0 1.67-.36 2.24-.95l11.85-11.71a4.2 4.2 0 0 0-5.88-6l-6.9 6.99c-.36.35-.84.57-1.37.57a1.9 1.9 0 0 1-1.41-.61l-6.65-6.95a4.2 4.2 0 0 0-2.91-1.18 4.2 4.2 0 0 0-4.2 4.2c0 1.16.48 2.22 1.25 2.98l11.73 11.7z"/><path class="st1" d="M35.94 11.03c3.04 0 5.51-2.47 5.51-5.52a5.516 5.516 0 1 0-11.03 0c0 3.05 2.47 5.52 5.52 5.52z"/></svg>