<svg xmlns="http://www.w3.org/2000/svg" viewBox="0 0 527.3 349.3"><g style="fill:#da2530"><path d="M218.9 129.4c13.2 11.3 25.6 17.4 44.7 17.8 19.6-.1 32.2-6.2 45.5-17.8l34.4-35.6c2.1-2.1 5-3.4 8.1-3.4 6.4 0 11.6 5.2 11.6 11.6 0 3.2-1.3 6.2-3.4 8.3l-45.8 44c-12.7 10.4-30.7 15.7-50.7 15.7-19.9 0-37.9-5.2-50.7-15.7l-44.9-43.8c-2.1-2.1-3.4-5-3.4-8.3 0-6.4 5.2-11.6 11.6-11.6 3.2 0 6 1.3 8.1 3.4l34.9 35.4z"/><path d="M242.7 96.3c5.2 5.6 12.6 9.1 20.7 9.1 8.3 0 15.7-3.5 20.9-9.2l30.2-30.4c2.1-2.2 5.2-3.6 8.4-3.6 6.4 0 11.6 5.2 11.6 11.6 0 3.2-1.3 6.2-3.4 8.3l-26.6 27c-13.4 12.9-21.3 21.4-41.2 21.1-19.2-.3-26.9-8.3-40-21L196.5 82c-2.1-2.1-3.4-5-3.4-8.3 0-6.4 5.2-11.6 11.6-11.6 3.4 0 6.3 1.4 8.4 3.6l29.6 30.6z"/><path d="M224.8 53.5c-2.1-2.1-3.5-5-3.5-8.3 0-6.4 5.2-11.6 11.6-11.6 3.1 0 6 1.3 8.1 3.2l18.5 19.3c1 1 2.4 1.7 3.9 1.7s2.8-.6 3.8-1.5l19.2-19.5c2.1-2 4.9-3.2 8.1-3.2 6.4 0 11.6 5.2 11.6 11.6 0 3.2-1.3 6.2-3.5 8.3L269.7 86c-1.5 1.7-3.8 2.7-6.2 2.7-2.5 0-4.6-1-6.3-2.7l-32.4-32.5z"/><circle cx="263.6" cy="19.5" r="15.3"/></g><g style="fill:#000"><path d="M257.5 246.4c1.5-.1 2.7-.6 3.4-1.3s1.1-1.8 1.1-3.8v-42c0-1.7-.3-2.8-.8-3.5s-1.8-1.1-3.5-1.3v-2h16v23.2c1.7-2.1 3.5-3.6 5.3-4.8 1.8-1.1 3.9-1.7 6.3-1.7 3.2 0 5.7 1 7.8 2.8s3.1 5 3.1 9.4v19.9c0 1.8.3 3.1 1 3.6.7.6 1.7 1 3.2 1.4v2h-19.6v-2c1.5-.3 2.5-.7 3.1-1.3s.8-1.7.8-3.5v-20c0-1.8-.1-3.4-.6-4.2-.7-1.7-2-2.5-3.8-2.5-1.4 0-2.9.7-4.5 2s-2.2 2.2-2.2 2.7v22.1c0 1.8.3 2.9.8 3.5.6.6 1.5 1 3.1 1.3v2h-19.8v-2.1l-.2.1z"/><path d="M299 246.4c1.4-.3 2.4-.6 2.9-1.1.8-.7 1.1-2.1 1.1-3.9v-24.2c0-1.7-.3-2.8-.8-3.5-.6-.6-1.7-1.1-3.4-1.4v-2h15.7v31.4c0 1.8.3 2.9.8 3.5.6.6 1.5.8 3.1 1.3v2h-19.6l.2-2.1zm5.4-53.1c1.3-1.3 2.8-1.8 4.5-1.8 1.8 0 3.2.6 4.5 1.8 1.3 1.3 1.8 2.8 1.8 4.5 0 1.8-.7 3.2-1.8 4.5-1.3 1.3-2.8 1.8-4.5 1.8-1.8 0-3.4-.6-4.5-1.8-1.3-1.3-1.8-2.8-1.8-4.5-.1-1.7.6-3.2 1.8-4.5zm36.9 21.7c3.1-3.8 6.9-5.6 11.2-5.6 2.2 0 4.1.6 5.9 1.7 1 .7 2.4 1.8 3.9 3.5v-15.1c0-2.1-.4-3.4-1.3-3.9s-2.5-.8-5-1v-2h17.7v47.6c0 1.7.3 2.8 1 3.5s2 1 3.8 1.1v2c-4.6.4-7.7.8-9 1-1.4.3-3.8.8-7.1 1.7V244c-1.5 1.5-2.9 2.8-4.3 3.5-2.1 1.3-4.2 1.8-6.6 1.8-4.1 0-7.6-1.7-10.5-5.2-2.9-3.4-4.5-8.1-4.5-13.9.1-6.2 1.7-11.4 4.8-15.2zm18.8 27.5c1.4-1.5 2.1-2.7 2.1-3.4v-20.2c0-.7-.6-1.7-1.8-2.9-1.3-1.3-2.8-2-4.8-2-2.9 0-4.9 2.1-6 6.2-.6 2.2-.8 5.3-.8 9.2 0 4.2.3 7.4.8 9.7 1 3.9 2.9 5.9 5.7 5.9 1.8-.2 3.4-1 4.8-2.5z"/><path d="M377.5 246.4c1.5-.1 2.7-.6 3.4-1.1.6-.6 1-1.7 1-3.2l.1-2.4v-22.4c0-1.7-.3-2.9-.8-3.5-.6-.6-1.8-1-3.5-1.3v-2h15.5v6.4c1.8-2.2 3.5-4.1 5.2-5.5s3.8-2 6-2c1.7 0 3.2.6 4.6 1.7s2.1 2.7 2.1 4.8c0 1.7-.4 2.9-1.4 3.9s-2.2 1.5-3.8 1.5c-1.8 0-3.2-.8-4.6-2.5-1.3-1.7-2.2-2.5-2.7-2.5-1.1 0-2.2.7-3.4 2-1.1 1.4-1.7 3.4-1.7 5.9v15.7c0 2.7.4 4.5 1.3 5 .8.7 2.4 1.1 4.8 1.4v2h-22l-.1-1.9z"/><path d="M413.6 214.6c3.4-3.5 7.4-5.3 12.2-5.3 2.7 0 5.3.7 7.7 2.1 2.4 1.4 4.2 3.4 5.5 5.9 1 2 1.7 4.3 2 7.4.1 1.4.3 2.5.3 3.2h-21c.1 3.4.7 6.2 1.7 8.5 1.7 4.5 4.5 6.9 8.5 6.9 2 0 3.8-.6 5.5-1.8 1-.7 2.4-2 3.9-3.6l2 1.1c-2.5 4.2-5.5 7.1-8.8 8.8-2.2 1.1-4.6 1.5-7.6 1.5-4.1 0-7.8-1.5-11.5-4.8-3.5-3.2-5.3-8.3-5.3-15.3-.1-6.2 1.6-11.1 4.9-14.6zm17.5 10.4c0-4.8-.4-8.1-1.1-10.1s-2.1-2.9-4.2-2.9-3.6 1.1-4.5 3.4c-.8 2.2-1.3 5.5-1.4 9.7l11.2-.1zm65.8 10.9h2.2c.8 3.9 2.2 6.7 4.5 8.3 2.2 1.7 4.5 2.4 6.7 2.4 2.1 0 3.6-.4 4.6-1.4s1.5-2.2 1.5-3.8c0-1.5-.6-2.8-1.7-3.8-.6-.6-1.5-1.1-2.8-1.8l-6.2-2.9c-3.2-1.5-5.5-3.4-6.9-5.2s-2.1-4.1-2.1-6.6c0-3.2 1.1-6 3.4-8.3 2.2-2.4 5.3-3.5 9.4-3.5 1.8 0 3.6.3 5.6.8s3.2.8 3.6.8c.7 0 1.1-.1 1.4-.4.3-.3.6-.7.7-1.3h1.8v11.9h-1.9c-.8-2.8-2.1-5-3.9-6.7-1.8-1.7-3.9-2.5-6.3-2.5-1.8 0-3.2.6-4.1 1.5-.8 1-1.4 2.1-1.4 3.4 0 1 .4 2 1.3 2.9.8 1 2.2 2 4.5 3.1l4.5 2.2c2.8 1.4 4.9 2.7 6.2 3.9 2.1 2.1 3.2 4.8 3.2 8 0 3.1-1.1 5.9-3.4 8.5s-5.6 3.9-9.9 3.9c-1.1 0-2.2-.1-3.4-.3-1.1-.3-2.5-.7-4.2-1.3l-1.4-.6c-.6-.1-.8-.3-1-.3h-.4c-.4 0-.8.1-1.3.6-.3.4-.7 1-1.1 1.8h-2v-13.6l.3.3zm-375.1-3.7c3.6-2.2 9.2-4.3 16.9-6.6v-6c0-2.4-.6-4.2-1.5-5.5-1-1.1-2.9-1.8-5.6-1.8-1.5 0-2.7.3-3.6.8-1 .6-1.4 1.3-1.4 2.1 0 .3 0 .6.1.8.1.3.3.4.4.7l.4.6c.4.4.7 1 .8 1.5.3.6.3 1.1.3 1.8 0 1.5-.6 2.8-1.5 3.6-1 .8-2.2 1.3-3.6 1.3-1.5 0-2.9-.4-4.1-1.4-1.1-1-1.7-2.2-1.7-4.1 0-3.2 1.5-5.6 4.5-7.6 2.9-1.8 6.7-2.8 11.1-2.8 4.6 0 8.5.8 11.8 2.7 3.1 1.8 4.6 5.2 4.6 10.1v20c0 .6.1 1.1.4 1.5.3.4.7.6 1 .6s.6 0 .8-.1c.3-.1.7-.4 1.3-1l1.3 1.7c-1.7 1.8-3.4 3.2-5.3 3.9-1.3.4-2.5.7-3.9.7-2.4 0-4.2-.7-5.3-2.1-.7-.8-1.1-2-1.4-3.6-2.2 2.2-4.9 3.9-7.7 4.9-1.8.6-3.5.8-5.2.8-2.2 0-4.3-.7-6.3-2.1s-2.9-3.6-2.9-6.7c-.1-3.5 1.8-6.4 5.3-8.7zm14.4 10.7c.7-.4 1.4-1.3 2.2-2.2v-12.2c-2.2.6-4.2 1.4-5.9 2.5-2.8 2-4.2 4.5-4.2 7.6 0 1.8.4 3.2 1.3 4.1.8 1 1.7 1.4 2.8 1.4 1.4 0 2.7-.4 3.8-1.2zM117.7 327c2.2-.1 3.8-.4 4.6-1 1.5-.8 2.2-2.5 2.2-4.9v-39.9c0-2.4-.7-3.9-2.1-4.8-.8-.4-2.5-.8-4.9-1.1v-2.1h28v2.1c-2.4.1-4.1.4-5 1-1.5.8-2.4 2.5-2.4 4.9v17.1h19.7v-17.1c0-2.4-.7-4.1-2.2-4.9-1-.6-2.7-.8-5-1v-2.1h28v2.1c-2.4.1-4.1.6-4.9 1-1.5.8-2.2 2.4-2.2 4.8v40c0 2.4.8 4.1 2.4 4.9 1 .6 2.5.8 4.8.8v2.1h-28v-2.1c2.4-.1 4.1-.4 5-1 1.5-.8 2.2-2.5 2.2-4.9v-18.8h-19.7v19c0 2.5.8 4.1 2.5 5 1 .4 2.7.8 4.9.8v2.1h-28l.1-2c-.1 0 0 0 0 0zm66.6-31.2c3.5-3.8 8-5.7 13.3-5.7 5.5 0 9.9 2 13.4 5.9s5.2 8.7 5.2 14.3c0 5.5-1.7 10.2-5.2 14.3-3.5 3.9-8 6-13.4 6-5.3 0-9.8-2-13.3-5.7-3.5-3.9-5.3-8.7-5.3-14.4.1-6 1.8-10.8 5.3-14.7zm7.9 26.6c1 3.6 2.8 5.3 5.6 5.3 2.7 0 4.3-1.4 5.2-4.1.8-2.8 1.3-7.1 1.3-13.4 0-6.2-.4-10.6-1.3-13.3-.8-2.8-2.5-4.2-5.2-4.2-2.8 0-4.6 1.8-5.6 5.3-.6 2.4-1 6.4-1 12.2 0 5.9.3 10 1 12.2zm25.3-5.7h2.2c.8 3.9 2.2 6.7 4.5 8.3 2.2 1.7 4.5 2.4 6.7 2.4 2.1 0 3.6-.4 4.6-1.4s1.5-2.2 1.5-3.8-.6-2.8-1.7-3.8c-.6-.6-1.5-1.1-2.8-1.8l-6.2-2.9c-3.2-1.5-5.5-3.4-6.9-5.2s-2.1-4.1-2.1-6.6c0-3.2 1.1-6 3.4-8.3 2.2-2.4 5.3-3.5 9.4-3.5 1.8 0 3.6.3 5.6.8 2 .6 3.2.8 3.6.8.7 0 1.1-.1 1.4-.4.3-.3.6-.7.7-1.3h1.8v12h-2.1c-.8-2.8-2.1-5-3.9-6.7-1.8-1.7-3.9-2.5-6.3-2.5-1.8 0-3.2.6-4.1 1.5-.8 1-1.4 2.1-1.4 3.4 0 1 .4 2 1.3 2.9.8 1 2.2 2 4.5 3.1l4.5 2.2c2.8 1.4 4.9 2.7 6.2 3.9 2.1 2.1 3.2 4.8 3.2 8 0 3.1-1.1 5.9-3.4 8.5-2.2 2.7-5.6 3.9-9.9 3.9-1.1 0-2.2-.1-3.4-.3-1.1-.3-2.5-.7-4.2-1.3l-1.4-.6c-.6-.1-.8-.3-1-.3h-.4c-.4 0-.8.1-1.3.6-.3.4-.7 1-1.1 1.8h-2v-13.6h.5v.2zm28.4 27.5c1.8-.1 2.9-.6 3.6-1.3s1-1.8 1-3.6v-41.4c0-1.7-.3-2.9-.8-3.5-.6-.6-1.8-1-3.5-1.3v-2H262v5.5c1.1-1.8 2.2-3.2 3.4-4.2 2-1.5 4.3-2.4 7.4-2.4 4.3 0 7.8 1.7 10.8 4.9 2.8 3.2 4.3 8.1 4.3 14.6 0 6-1.5 10.9-4.6 14.8s-6.9 5.9-11.2 5.9c-2.2 0-4.3-.7-6.4-2-1.1-.7-2.2-1.7-3.4-2.9v7c0 3.8 0 5.7.1 6.3.1 2.1.7 3.6 1.7 4.5 1 .8 2.5 1.3 4.6 1.4v1.7H246l-.1-2zm28.7-24.5c.6-2.2.8-5.3.8-9.4 0-4.8-.4-8.5-1.3-11.3-.8-2.8-2.7-4.2-5.3-4.2-1.8 0-3.4.8-4.8 2.4s-2.1 2.7-2.1 3.4v20c0 .8.7 1.8 2 3.1 1.4 1.3 2.8 2 4.5 2 3.3.1 5.2-2 6.2-6zm14 7.5c1.4-.3 2.4-.6 2.9-1.1.8-.7 1.1-2.1 1.1-3.9V298c0-1.7-.3-2.8-.8-3.5-.6-.6-1.7-1.1-3.4-1.4v-2h15.7v31.4c0 1.8.3 2.9.8 3.5s1.5.8 3.1 1.3v2h-19.6l.2-2.1zm5.3-53.1c1.3-1.3 2.8-1.8 4.5-1.8s3.2.6 4.5 1.8c1.3 1.3 1.8 2.8 1.8 4.5 0 1.8-.7 3.2-1.8 4.5-1.3 1.3-2.8 1.8-4.5 1.8-1.8 0-3.4-.6-4.5-1.8-1.3-1.3-1.8-2.8-1.8-4.5s.6-3.2 1.8-4.5zm14.3 20.6v-2.2c.7-.7 1.7-1.4 2.7-2.4 1.4-1.3 2.8-2.7 4.1-4.1 2.5-2.8 4.8-5.7 6.9-8.8h2.1v14h7.8v3.6H324v24.9c0 1.1.1 2.1.6 2.9.6 1.3 1.4 1.8 2.7 1.8 1.1 0 2-.4 2.7-1.1s1.4-1.8 2.2-3.2l2 1c-1 2.2-2.1 4.1-3.5 5.6-2.4 2.5-5.2 3.8-8.7 3.8-2 0-3.6-.4-5-1.1-2.8-1.4-4.2-3.9-4.2-7.6v-26.7h-4.3l-.3-.4z"/><path d="M338.7 312.5c3.6-2.2 9.2-4.3 16.9-6.6v-6c0-2.4-.6-4.2-1.5-5.5-1-1.1-2.9-1.8-5.5-1.8-1.5 0-2.7.3-3.6.8-1 .6-1.4 1.3-1.4 2.1 0 .3 0 .6.1.8.1.3.3.4.4.7l.4.6c.4.4.7 1 .8 1.5.3.6.3 1.1.3 1.8 0 1.5-.6 2.8-1.5 3.6-1 .8-2.2 1.3-3.6 1.3-1.5 0-2.9-.4-4.1-1.4-1.1-1-1.7-2.2-1.7-4.1 0-3.2 1.5-5.6 4.5-7.6 2.9-1.8 6.7-2.8 11.1-2.8 4.6 0 8.5.8 11.8 2.7 3.1 1.8 4.6 5.2 4.6 10.1v20c0 .6.1 1.1.4 1.5s.7.6 1 .6.6 0 .8-.1c.3-.1.7-.4 1.3-1l1.3 1.7c-1.7 1.8-3.4 3.2-5.3 3.9-1.3.4-2.5.7-3.9.7-2.4 0-4.2-.7-5.3-2.1-.7-.8-1.1-2-1.4-3.6-2.2 2.2-4.9 3.9-7.7 4.9-1.8.6-3.5.8-5.2.8-2.2 0-4.3-.7-6.3-2.1s-2.9-3.6-2.9-6.7c-.1-3.6 1.7-6.5 5.2-8.7zm14.4 10.7c.7-.4 1.4-1.3 2.2-2.2v-12.2c-2.2.6-4.2 1.4-5.9 2.5-2.8 2-4.2 4.5-4.2 7.6 0 1.8.4 3.2 1.3 4.1.8 1 1.7 1.4 2.8 1.4 1.5 0 2.7-.5 3.8-1.2z"/><path d="M370.8 327.2c1.4-.3 2.5-.8 3.1-1.4s.8-1.8.8-3.6v-42c0-1.8-.3-2.9-.8-3.5-.6-.6-1.5-1-3.1-1.4v-2h15.5v48.9c0 1.8.3 3.1.8 3.6.6.6 1.7 1 3.2 1.4v2h-19.7v-2h.2zm30.8-44.7c-4.6 0-8.4-3.8-8.4-8.4s3.8-8.4 8.4-8.4 8.4 3.8 8.4 8.4-3.8 8.4-8.4 8.4zm0-15.7c-4.1 0-7.3 3.2-7.3 7.3s3.2 7.3 7.3 7.3 7.3-3.2 7.3-7.3c0-3.9-3.3-7.3-7.3-7.3zm-3.2 4.8c0-1 0-1.8-1.1-1.8v-.4h4.9c2.1 0 3.6.8 3.6 2.5 0 1.3-1 2.2-2.1 2.5l1.5 2.7c.3.6.7 1.4 1.4 1.4v.4h-2.8l-2.4-4.3h-.6v2.1c0 1.3 0 1.8 1.4 1.8v.4h-5v-.4c1.3 0 1.3-.6 1.3-1.8v-5h-.1v-.1zm2.3 2.2c.1 0 .4.1.7.1 1.3 0 1.8-1 1.8-2.1 0-.8-.3-2-2-2h-.5v4zM2.9 193h49.7l.1 16.7h-2.4c-.8-6-2.9-9.9-6.7-12.2-2.1-1.1-5.2-1.8-9.2-2v43.7c0 3.1.6 5 1.5 6 1.1 1 3.2 1.5 6.7 1.5v2.1H13v-2.1c3.2 0 5.5-.6 6.4-1.5 1.1-1 1.5-3.1 1.5-6v-43.5c-4.1.1-7.1.7-9.2 2-3.9 2.1-6.2 6.2-6.7 12.2H2.6l.3-16.9z"/><path d="M76.3 238.5c-1.5 1.6-2.9 2.9-3.9 3.6-1.7 1.2-3.5 1.8-5.5 1.8-4 0-6.8-2.4-8.5-6.9-1-2.3-1.6-5.1-1.7-8.5h21.2c0-.7-.2-1.8-.3-3.2-.3-3.1-1-5.4-2-7.4-1.3-2.5-3.1-4.5-5.5-5.9-2.4-1.4-5-2.1-7.7-2.1-4.8 0-8.8 1.8-12.2 5.3-3.3 3.5-5 8.4-5.1 14.6 0 7 1.8 12.1 5.3 15.3 3.7 3.3 7.4 4.8 11.5 4.8 3 0 5.4-.5 7.6-1.5 3.3-1.7 6.3-4.6 8.8-8.8l-2-1.1zm-18.2-22.6c.9-2.3 2.4-3.4 4.5-3.4s3.5.9 4.2 2.9c.7 2 1.1 5.3 1.1 10.1l-11.2.1c.1-4.2.6-7.5 1.4-9.7z"/><path d="M77.7 246.9c1.4-.3 2.5-.7 3.5-1.4s2.5-2.2 4.5-4.6c.8-1 2-2.5 3.4-4.3s2.5-3.4 3.4-4.5l-10.8-16.2c-.8-1.3-1.5-2.1-2.1-2.5-.6-.3-1.3-.6-2.2-.7v-2H98v2c-2 .3-3.1.4-3.4.6-.3.1-.4.4-.4 1s.7 2 2.1 4.2 2.7 3.9 3.6 5.5c2.8-3.5 4.6-5.9 5.2-6.9.7-1 1-1.8 1-2.4 0-.8-.3-1.3-1-1.5-.7-.3-1.7-.3-3.2-.4v-2h13.8v2c-1 .1-1.8.4-2.5.7-1.3.6-2.2 1.4-3.2 2.5l-8.5 10.5 12.3 18.8c.3.4.6.8 1 1 .4.3.8.4 1.4.7v2H96.3v-2c1.1 0 2.1-.1 2.8-.4s1-.7 1-1.4c0-.4-.3-1.3-.8-2.2-.3-.6-.8-1.5-1.5-2.7-.4-.6-1-1.5-1.7-2.5-.7-1.1-1.4-2.1-2.1-3.1-1.8 2.2-3.1 3.9-4.1 5.2-1.8 2.5-2.7 4.2-2.7 4.9 0 .8.3 1.4 1 1.7s1.7.4 3.1.4v2H77.4v-1.7l.3-.3zm76.5-10.5h2.2c.8 3.9 2.2 6.7 4.5 8.3 2.2 1.7 4.5 2.4 6.7 2.4 2.1 0 3.6-.4 4.6-1.4s1.5-2.2 1.5-3.8c0-1.5-.6-2.8-1.7-3.8-.6-.6-1.5-1.1-2.8-1.8l-6.2-2.9c-3.2-1.5-5.5-3.4-6.9-5.2s-2.1-4.1-2.1-6.6c0-3.2 1.1-6 3.4-8.3 2.2-2.4 5.3-3.5 9.4-3.5 1.8 0 3.6.3 5.6.8 2 .6 3.2.8 3.6.8.7 0 1.1-.1 1.4-.4.3-.3.6-.7.7-1.3h1.8v11.9h-2.1c-.8-2.8-2.1-5-3.9-6.7-1.8-1.7-3.9-2.5-6.3-2.5-1.8 0-3.2.6-4.1 1.5-.8 1-1.4 2.1-1.4 3.4 0 1 .4 2 1.3 2.9.8 1 2.2 2 4.5 3.1l4.5 2.2c2.8 1.4 4.9 2.7 6.2 3.9 2.1 2.1 3.2 4.8 3.2 8 0 3.1-1.1 5.9-3.4 8.5-2.2 2.7-5.6 3.9-9.9 3.9-1.1 0-2.2-.1-3.4-.3-1.1-.3-2.5-.7-4.2-1.3l-1.4-.6c-.6-.1-.8-.3-1-.3h-.4c-.4 0-.8.1-1.1.6-.3.4-.7 1-1.1 1.8h-2l.3-13.3zm89.2-42.9c3.5 1.3 5.5 2 5.9 2 1.1 0 1.8-.4 2.5-1.3.7-.8 1-1.7 1.3-2.7h2.4v19.3h-2.1c-2-4.2-4.1-7.6-6.2-9.9-3.9-4.5-8.3-6.7-13.2-6.7-5.6 0-9.5 2.4-11.8 7.1-2.4 4.8-3.5 11.2-3.5 19.2 0 5.9.7 10.8 2.1 14.6 2.5 7.1 7.3 10.8 14.1 10.8 4.2 0 8.1-1.1 11.8-3.5 2.1-1.4 4.6-3.5 7.4-6.6l2.5 2.1c-3.2 3.6-6 6.2-8.5 7.8-4.3 2.9-9.2 4.3-14.6 4.3-8.1 0-15-2.4-20.4-7.3-6.2-5.3-9.1-12.6-9.1-21.6s2.9-16.2 8.8-21.8c5.5-5.2 12.2-7.8 20.2-7.8 3.4 0 6.9.7 10.4 2zm74.1 52.9c1.4-.3 2.5-.8 3.1-1.4s.8-1.8.8-3.6v-42c0-1.8-.3-2.9-.8-3.5-.6-.6-1.5-1-3.1-1.4v-2H333v48.9c0 1.8.3 3.1.8 3.6.6.6 1.7 1 3.2 1.4v2h-19.7v-2h.2zm165.4-28c2.5-1.7 4.3-3.2 5.6-4.5 2.2-2.2 3.4-4.3 3.4-6.4 0-.6-.1-1-.4-1.4-.3-.3-.7-.6-1.3-.6-1 .1-1.5.1-1.8.1-1.8 0-3.2-.6-4.5-1.8-1.1-1.3-1.7-2.8-1.7-4.6 0-2.1.6-3.8 1.8-5 1.3-1.3 2.9-2 5-2 2.4 0 4.3.8 5.9 2.5s2.4 4.1 2.4 7c0 4.3-1.7 8.1-4.9 11.8-2.1 2.2-5 4.3-8.8 6.4l-.7-1.5zm-42.7 28c1.5-.1 2.7-.6 3.4-1.3s1.1-1.8 1.1-3.8v-24.2c0-1.7-.3-2.8-.8-3.5-.6-.7-1.8-1.1-3.5-1.3v-2h15.5v5.9c1.3-2 2.9-3.6 5-4.9 2-1.3 4.3-2 6.7-2 3.5 0 6.3 1 8.3 2.8s2.9 5 2.9 9.7v20c0 1.8.3 3.1 1 3.5.7.6 1.7.8 3.2 1.1v2h-19.5v-2c1.5-.3 2.5-.7 3.1-1.3s.8-1.7.8-3.5v-20c0-1.8-.1-3.4-.6-4.2-.7-1.7-2-2.5-3.8-2.5-1.4 0-2.8.6-3.9 1.5-1.3 1-2.1 2.1-2.8 3.1v22.1c0 1.8.3 2.9.8 3.5.6.6 1.5 1 3.1 1.3v2h-19.9v-2.1l-.1.1z"/></g></svg>