<svg xmlns="http://www.w3.org/2000/svg" viewBox="0 0 522.1 341.999"><g style="fill:#da2530" transform="translate(-2.6 -4.2)"><path d="M218.9 129.4c13.2 11.3 25.6 17.4 44.7 17.8 19.6-.1 32.2-6.2 45.5-17.8l34.4-35.6c2.1-2.1 5-3.4 8.1-3.4 6.4 0 11.6 5.2 11.6 11.6 0 3.2-1.3 6.2-3.4 8.3l-45.8 44c-12.7 10.4-30.7 15.7-50.7 15.7-19.9 0-37.9-5.2-50.7-15.7l-44.9-43.8c-2.1-2.1-3.4-5-3.4-8.3 0-6.4 5.2-11.6 11.6-11.6 3.2 0 6 1.3 8.1 3.4z"/><path d="M242.7 96.3c5.2 5.6 12.6 9.1 20.7 9.1 8.3 0 15.7-3.5 20.9-9.2l30.2-30.4c2.1-2.2 5.2-3.6 8.4-3.6 6.4 0 11.6 5.2 11.6 11.6 0 3.2-1.3 6.2-3.4 8.3l-26.6 27c-13.4 12.9-21.3 21.4-41.2 21.1-19.2-.3-26.9-8.3-40-21L196.5 82c-2.1-2.1-3.4-5-3.4-8.3 0-6.4 5.2-11.6 11.6-11.6 3.4 0 6.3 1.4 8.4 3.6z"/><path d="M224.8 53.5c-2.1-2.1-3.5-5-3.5-8.3 0-6.4 5.2-11.6 11.6-11.6 3.1 0 6 1.3 8.1 3.2l18.5 19.3c1 1 2.4 1.7 3.9 1.7s2.8-.6 3.8-1.5l19.2-19.5c2.1-2 4.9-3.2 8.1-3.2 6.4 0 11.6 5.2 11.6 11.6 0 3.2-1.3 6.2-3.5 8.3L269.7 86c-1.5 1.7-3.8 2.7-6.2 2.7-2.5 0-4.6-1-6.3-2.7z"/><circle cx="263.6" cy="19.5" r="15.3"/></g><path d="M368.2 323c1.4-.3 2.5-.8 3.1-1.4.6-.6.8-1.8.8-3.6v-42c0-1.8-.3-2.9-.8-3.5-.6-.6-1.5-1-3.1-1.4v-2h15.5V318c0 1.8.3 3.1.8 3.6.6.6 1.7 1 3.2 1.4v2H368v-2zm30.8-61.5c-4.6 0-8.4 3.8-8.4 8.4 0 4.6 3.8 8.4 8.4 8.4 4.6 0 8.4-3.8 8.4-8.4 0-4.6-3.8-8.4-8.4-8.4zm0 1.1c4 0 7.3 3.4 7.3 7.3 0 4.1-3.2 7.3-7.3 7.3s-7.3-3.2-7.3-7.3 3.2-7.3 7.3-7.3zm-4.3 2.6v.4c1.1 0 1.1.8 1.1 1.8v.1h.1v5c0 1.2 0 1.8-1.3 1.8v.4h5v-.4c-1.4 0-1.4-.5-1.4-1.8v-2.1h.6l2.4 4.3h2.8v-.4c-.7 0-1.1-.8-1.4-1.4l-1.5-2.7c1.1-.3 2.1-1.2 2.1-2.5 0-1.7-1.5-2.5-3.6-2.5zm3.4.4h.5c1.7 0 2 1.2 2 2 0 1.1-.5 2.1-1.8 2.1-.3 0-.6-.1-.7-.1z"/><g style="fill:#000"><path d="M336.1 308.3c3.6-2.2 9.2-4.3 16.9-6.6v-6c0-2.4-.6-4.2-1.5-5.5-1-1.1-2.9-1.8-5.5-1.8-1.5 0-2.7.3-3.6.8-1 .6-1.4 1.3-1.4 2.1 0 .3 0 .6.1.8.1.3.3.4.4.7l.4.6c.4.4.7 1 .8 1.5.3.6.3 1.1.3 1.8 0 1.5-.6 2.8-1.5 3.6-1 .8-2.2 1.3-3.6 1.3-1.5 0-2.9-.4-4.1-1.4-1.1-1-1.7-2.2-1.7-4.1 0-3.2 1.5-5.6 4.5-7.6 2.9-1.8 6.7-2.8 11.1-2.8 4.6 0 8.5.8 11.8 2.7 3.1 1.8 4.6 5.2 4.6 10.1v20c0 .6.1 1.1.4 1.5.3.4.7.6 1 .6.3 0 .6 0 .8-.1.3-.1.7-.4 1.3-1l1.3 1.7c-1.7 1.8-3.4 3.2-5.3 3.9-1.3.4-2.5.7-3.9.7-2.4 0-4.2-.7-5.3-2.1-.7-.8-1.1-2-1.4-3.6-2.2 2.2-4.9 3.9-7.7 4.9-1.8.6-3.5.8-5.2.8-2.2 0-4.3-.7-6.3-2.1-2-1.4-2.9-3.6-2.9-6.7-.1-3.6 1.7-6.5 5.2-8.7zm14.4 10.7c.7-.4 1.4-1.3 2.2-2.2v-12.2c-2.2.6-4.2 1.4-5.9 2.5-2.8 2-4.2 4.5-4.2 7.6 0 1.8.4 3.2 1.3 4.1.8 1 1.7 1.4 2.8 1.4 1.5 0 2.7-.5 3.8-1.2z"/><path d="M305.6 290.5v-2.2c.7-.7 1.7-1.4 2.7-2.4 1.4-1.3 2.8-2.7 4.1-4.1 2.5-2.8 4.8-5.7 6.9-8.8h2.1v14h7.8v3.6h-7.8v24.9c0 1.1.1 2.1.6 2.9.6 1.3 1.4 1.8 2.7 1.8 1.1 0 2-.4 2.7-1.1.7-.7 1.4-1.8 2.2-3.2l2 1c-1 2.2-2.1 4.1-3.5 5.6-2.4 2.5-5.2 3.8-8.7 3.8-2 0-3.6-.4-5-1.1-2.8-1.4-4.2-3.9-4.2-7.6v-26.7h-4.3zm-9.8-22.4c-1.7 0-3.2.5-4.5 1.8-1.2 1.3-1.8 2.8-1.8 4.5 0 1.7.5 3.2 1.8 4.5 1.1 1.2 2.7 1.8 4.5 1.8 1.7 0 3.2-.5 4.5-1.8 1.1-1.3 1.8-2.7 1.8-4.5 0-1.7-.5-3.2-1.8-4.5-1.3-1.2-2.8-1.8-4.5-1.8zm-10 18.8v2c1.7.3 2.8.8 3.4 1.4.5.7.8 1.8.8 3.5V318c0 1.8-.3 3.2-1.1 3.9-.5.5-1.5.8-2.9 1.1l-.2 2.1h19.6v-2c-1.6-.5-2.6-.7-3.1-1.3-.5-.6-.8-1.7-.8-3.5v-31.4zm-15.6-1.1c-3.1 0-5.4.9-7.4 2.4-1.2 1-2.3 2.4-3.4 4.2v-5.5h-15.8v2c1.7.3 2.9.7 3.5 1.3.5.6.8 1.8.8 3.5v41.4c0 1.8-.3 2.9-1 3.6-.7.7-1.8 1.2-3.6 1.3l.1 2h22.7v-1.7c-2.1-.1-3.6-.6-4.6-1.4-1-.9-1.6-2.4-1.7-4.5-.1-.6-.1-2.5-.1-6.3v-7c1.2 1.2 2.3 2.2 3.4 2.9 2.1 1.3 4.2 2 6.4 2 4.3 0 8.1-2 11.2-5.9 3.1-3.9 4.6-8.8 4.6-14.8 0-6.5-1.5-11.4-4.3-14.6-3-3.2-6.5-4.9-10.8-4.9zm-4 4.8c2.6 0 4.5 1.4 5.3 4.2.9 2.8 1.3 6.5 1.3 11.3 0 4.1-.2 7.2-.8 9.4-1 4-2.9 6.1-6.2 6-1.7 0-3.1-.7-4.5-2-1.3-1.3-2-2.3-2-3.1v-20c0-.7.7-1.8 2.1-3.4 1.4-1.6 3-2.4 4.8-2.4zm-51.3 21.9h2.2c.8 3.9 2.2 6.7 4.5 8.3 2.2 1.7 4.5 2.4 6.7 2.4 2.1 0 3.6-.4 4.6-1.4 1-1 1.5-2.2 1.5-3.8 0-1.6-.6-2.8-1.7-3.8-.6-.6-1.5-1.1-2.8-1.8l-6.2-2.9c-3.2-1.5-5.5-3.4-6.9-5.2-1.4-1.8-2.1-4.1-2.1-6.6 0-3.2 1.1-6 3.4-8.3 2.2-2.4 5.3-3.5 9.4-3.5 1.8 0 3.6.3 5.6.8 2 .6 3.2.8 3.6.8.7 0 1.1-.1 1.4-.4.3-.3.6-.7.7-1.3h1.8v12h-2.1c-.8-2.8-2.1-5-3.9-6.7-1.8-1.7-3.9-2.5-6.3-2.5-1.8 0-3.2.6-4.1 1.5-.8 1-1.4 2.1-1.4 3.4 0 1 .4 2 1.3 2.9.8 1 2.2 2 4.5 3.1l4.5 2.2c2.8 1.4 4.9 2.7 6.2 3.9 2.1 2.1 3.2 4.8 3.2 8 0 3.1-1.1 5.9-3.4 8.5-2.2 2.7-5.6 3.9-9.9 3.9-1.1 0-2.2-.1-3.4-.3-1.1-.3-2.5-.7-4.2-1.3l-1.4-.6c-.6-.1-.8-.3-1-.3h-.4c-.4 0-.8.1-1.3.6-.3.4-.7 1-1.1 1.8h-2v-13.6h.5zM195 285.9c-5.3 0-9.8 1.9-13.3 5.7-3.5 3.9-5.2 8.7-5.3 14.7 0 5.7 1.8 10.5 5.3 14.4 3.5 3.7 8 5.7 13.3 5.7 5.4 0 9.9-2.1 13.4-6 3.5-4.1 5.2-8.8 5.2-14.3 0-5.6-1.7-10.4-5.2-14.3-3.5-3.9-7.9-5.9-13.4-5.9zm.2 2.6c2.7 0 4.4 1.4 5.2 4.2.9 2.7 1.3 7.1 1.3 13.3 0 6.3-.5 10.6-1.3 13.4-.9 2.7-2.5 4.1-5.2 4.1-2.8 0-4.6-1.7-5.6-5.3-.7-2.2-1-6.3-1-12.2 0-5.8.4-9.8 1-12.2 1-3.5 2.8-5.3 5.6-5.3zm-80.1 34.3c2.2-.1 3.8-.4 4.6-1 1.5-.8 2.2-2.5 2.2-4.9V277c0-2.4-.7-3.9-2.1-4.8-.8-.4-2.5-.8-4.9-1.1V269h28v2.1c-2.4.1-4.1.4-5 1-1.5.8-2.4 2.5-2.4 4.9v17.1h19.7V277c0-2.4-.7-4.1-2.2-4.9-1-.6-2.7-.8-5-1V269h28v2.1c-2.4.1-4.1.6-4.9 1-1.5.8-2.2 2.4-2.2 4.8v40c0 2.4.8 4.1 2.4 4.9 1 .6 2.5.8 4.8.8v2.1h-28v-2.1c2.4-.1 4.1-.4 5-1 1.5-.8 2.2-2.5 2.2-4.9v-18.8h-19.7v19c0 2.5.8 4.1 2.5 5 1 .4 2.7.8 4.9.8v2.1h-28l.1-2c-.1 0 0 0 0 0zm365.2-108.6c2.5-1.7 4.3-3.2 5.6-4.5 2.2-2.2 3.4-4.3 3.4-6.4 0-.6-.1-1-.4-1.4-.3-.3-.7-.6-1.3-.6-1 .1-1.5.1-1.8.1-1.8 0-3.2-.6-4.5-1.8-1.1-1.3-1.7-2.8-1.7-4.6 0-2.1.6-3.8 1.8-5 1.3-1.3 2.9-2 5-2 2.4 0 4.3.8 5.9 2.5 1.6 1.7 2.4 4.1 2.4 7 0 4.3-1.7 8.1-4.9 11.8-2.1 2.2-5 4.3-8.8 6.4zm14 17.5h2.2c.8 3.9 2.2 6.7 4.5 8.3 2.2 1.7 4.5 2.4 6.7 2.4 2.1 0 3.6-.4 4.6-1.4 1-1 1.5-2.2 1.5-3.8 0-1.5-.6-2.8-1.7-3.8-.6-.6-1.5-1.1-2.8-1.8l-6.2-2.9c-3.2-1.5-5.5-3.4-6.9-5.2-1.4-1.8-2.1-4.1-2.1-6.6 0-3.2 1.1-6 3.4-8.3 2.2-2.4 5.3-3.5 9.4-3.5 1.8 0 3.6.3 5.6.8 2 .5 3.2.8 3.6.8.7 0 1.1-.1 1.4-.4.3-.3.6-.7.7-1.3h1.8v11.9h-1.9c-.8-2.8-2.1-5-3.9-6.7-1.8-1.7-3.9-2.5-6.3-2.5-1.8 0-3.2.6-4.1 1.5-.8 1-1.4 2.1-1.4 3.4 0 1 .4 2 1.3 2.9.8 1 2.2 2 4.5 3.1l4.5 2.2c2.8 1.4 4.9 2.7 6.2 3.9 2.1 2.1 3.2 4.8 3.2 8 0 3.1-1.1 5.9-3.4 8.5-2.3 2.6-5.6 3.9-9.9 3.9-1.1 0-2.2-.1-3.4-.3-1.1-.3-2.5-.7-4.2-1.3l-1.4-.6c-.6-.1-.8-.3-1-.3h-.4c-.4 0-.8.1-1.3.6-.3.4-.7 1-1.1 1.8h-2v-13.6zm-56.7 10.5c1.5-.1 2.7-.6 3.4-1.3.7-.7 1.1-1.8 1.1-3.8v-24.2c0-1.7-.3-2.8-.8-3.5-.6-.7-1.8-1.1-3.5-1.3v-2h15.5v5.9c1.3-2 2.9-3.6 5-4.9 2-1.3 4.3-2 6.7-2 3.5 0 6.3 1 8.3 2.8 2 1.8 2.9 5 2.9 9.7v20c0 1.8.3 3.1 1 3.5.7.6 1.7.8 3.2 1.1v2h-19.5v-2c1.5-.3 2.5-.7 3.1-1.3.6-.6.8-1.7.8-3.5v-20c0-1.8-.1-3.4-.6-4.2-.7-1.7-2-2.5-3.8-2.5-1.4 0-2.8.6-3.9 1.5-1.3 1-2.1 2.1-2.8 3.1v22.1c0 1.8.3 2.9.8 3.5.6.6 1.5 1 3.1 1.3v2h-19.9v-2.1z"/><path d="M423.2 205.1c-4.8 0-8.8 1.8-12.2 5.3-3.3 3.5-5 8.4-4.9 14.6 0 7 1.8 12.1 5.3 15.3 3.7 3.3 7.4 4.8 11.5 4.8 3 0 5.4-.4 7.6-1.5 3.3-1.7 6.3-4.6 8.8-8.8l-2-1.1c-1.5 1.6-2.9 2.9-3.9 3.6-1.7 1.2-3.5 1.8-5.5 1.8-4 0-6.8-2.4-8.5-6.9-1-2.3-1.6-5.1-1.7-8.5h21c0-.7-.2-1.8-.3-3.2-.3-3.1-1-5.4-2-7.4-1.3-2.5-3.1-4.5-5.5-5.9-2.4-1.4-5-2.1-7.7-2.1zm0 2.7c2.1 0 3.5.9 4.2 2.9.7 2 1.1 5.3 1.1 10.1l-11.2.1c.1-4.2.6-7.5 1.4-9.7.9-2.3 2.4-3.4 4.5-3.4z"/><path d="M374.9 242.2c1.5-.1 2.7-.6 3.4-1.1.6-.6 1-1.7 1-3.2l.1-2.4v-22.4c0-1.7-.3-2.9-.8-3.5-.6-.6-1.8-1-3.5-1.3v-2h15.5v6.4c1.8-2.2 3.5-4.1 5.2-5.5 1.7-1.4 3.8-2 6-2 1.7 0 3.2.6 4.6 1.7 1.4 1.1 2.1 2.7 2.1 4.8 0 1.7-.4 2.9-1.4 3.9-1 1-2.2 1.5-3.8 1.5-1.8 0-3.2-.8-4.6-2.5-1.3-1.7-2.2-2.5-2.7-2.5-1.1 0-2.2.7-3.4 2-1.1 1.4-1.7 3.4-1.7 5.9v15.7c0 2.7.4 4.5 1.3 5 .8.7 2.4 1.1 4.8 1.4v2h-22z"/><path d="M353.4 188.4v2c2.5.2 4.1.5 5 1 .9.5 1.3 1.8 1.3 3.9v15.1c-1.5-1.7-2.9-2.8-3.9-3.5-1.8-1.1-3.7-1.7-5.9-1.7-4.3 0-8.1 1.8-11.2 5.6-3.1 3.8-4.7 9-4.8 15.2 0 5.8 1.6 10.5 4.5 13.9 2.9 3.5 6.4 5.2 10.5 5.2 2.4 0 4.5-.5 6.6-1.8 1.4-.7 2.8-2 4.3-3.5v5.5c3.3-.9 5.7-1.4 7.1-1.7 1.3-.2 4.4-.6 9-1v-2c-1.8-.1-3.1-.4-3.8-1.1-.7-.7-1-1.8-1-3.5v-47.6Zm-.4 21.4c2 0 3.5.7 4.8 2 1.2 1.2 1.8 2.2 1.8 2.9v20.2c0 .7-.7 1.9-2.1 3.4-1.4 1.5-3 2.3-4.8 2.5-2.8 0-4.7-2-5.7-5.9-.5-2.3-.8-5.5-.8-9.7 0-3.9.2-7 .8-9.2 1.1-4.1 3.1-6.2 6-6.2zm-38.1 32.4c1.4-.3 2.5-.8 3.1-1.4.6-.6.8-1.8.8-3.6v-42c0-1.8-.3-2.9-.8-3.5-.6-.6-1.5-1-3.1-1.4v-2h15.5v48.9c0 1.8.3 3.1.8 3.6.6.6 1.7 1 3.2 1.4v2h-19.7v-2z"/><path d="M306.3 187.3c-1.7 0-3.2.5-4.5 1.8-1.2 1.3-1.9 2.8-1.8 4.5 0 1.7.5 3.2 1.8 4.5 1.1 1.2 2.7 1.8 4.5 1.8 1.7 0 3.2-.5 4.5-1.8 1.1-1.3 1.8-2.7 1.8-4.5 0-1.7-.5-3.2-1.8-4.5-1.3-1.2-2.7-1.8-4.5-1.8zm-10.1 18.8v2c1.7.3 2.8.8 3.4 1.4.5.7.8 1.8.8 3.5v24.2c0 1.8-.3 3.2-1.1 3.9-.5.5-1.5.8-2.9 1.1l-.2 2.1h19.6v-2c-1.6-.5-2.5-.7-3.1-1.3-.5-.6-.8-1.7-.8-3.5v-31.4z"/><path d="M254.9 242.2c1.5-.1 2.7-.6 3.4-1.3.7-.7 1.1-1.8 1.1-3.8v-42c0-1.7-.3-2.8-.8-3.5-.5-.7-1.8-1.1-3.5-1.3v-2h16v23.2c1.7-2.1 3.5-3.6 5.3-4.8 1.8-1.1 3.9-1.7 6.3-1.7 3.2 0 5.7 1 7.8 2.8 2.1 1.8 3.1 5 3.1 9.4v19.9c0 1.8.3 3.1 1 3.6.7.6 1.7 1 3.2 1.4v2h-19.6v-2c1.5-.3 2.5-.7 3.1-1.3.6-.6.8-1.7.8-3.5v-20c0-1.8-.1-3.4-.6-4.2-.7-1.7-2-2.5-3.8-2.5-1.4 0-2.9.7-4.5 2s-2.2 2.2-2.2 2.7v22.1c0 1.8.3 2.9.8 3.5.6.6 1.5 1 3.1 1.3v2h-19.8v-2.1zm-14.1-52.9c3.5 1.3 5.5 2 5.9 2 1.1 0 1.8-.4 2.5-1.3.7-.8 1-1.7 1.3-2.7h2.4v19.3h-2.1c-2-4.2-4.1-7.6-6.2-9.9-3.9-4.5-8.3-6.7-13.2-6.7-5.6 0-9.5 2.4-11.8 7.1-2.4 4.8-3.5 11.2-3.5 19.2 0 5.9.7 10.8 2.1 14.6 2.5 7.1 7.3 10.8 14.1 10.8 4.2 0 8.1-1.1 11.8-3.5 2.1-1.4 4.6-3.5 7.4-6.6l2.5 2.1c-3.2 3.6-6 6.2-8.5 7.8-4.3 2.9-9.2 4.3-14.6 4.3-8.1 0-15-2.4-20.4-7.3-6.2-5.3-9.1-12.6-9.1-21.6 0-9 2.9-16.2 8.8-21.8 5.5-5.2 12.2-7.8 20.2-7.8 3.4 0 6.9.7 10.4 2zm-89.2 42.9h2.2c.8 3.9 2.2 6.7 4.5 8.3 2.2 1.7 4.5 2.4 6.7 2.4 2.1 0 3.6-.4 4.6-1.4 1-1 1.5-2.2 1.5-3.8 0-1.5-.6-2.8-1.7-3.8-.6-.6-1.5-1.1-2.8-1.8l-6.2-2.9c-3.2-1.5-5.5-3.4-6.9-5.2-1.4-1.8-2.1-4.1-2.1-6.6 0-3.2 1.1-6 3.4-8.3 2.2-2.4 5.3-3.5 9.4-3.5 1.8 0 3.6.3 5.6.8 2 .6 3.2.8 3.6.8.7 0 1.1-.1 1.4-.4.3-.3.6-.7.7-1.3h1.8v11.9h-2.1c-.8-2.8-2.1-5-3.9-6.7-1.8-1.7-3.9-2.5-6.3-2.5-1.8 0-3.2.6-4.1 1.5-.8 1-1.4 2.1-1.4 3.4 0 1 .4 2 1.3 2.9.8 1 2.2 2 4.5 3.1l4.5 2.2c2.8 1.4 4.9 2.7 6.2 3.9 2.1 2.1 3.2 4.8 3.2 8 0 3.1-1.1 5.9-3.4 8.5-2.2 2.7-5.6 3.9-9.9 3.9-1.1 0-2.2-.1-3.4-.3-1.1-.3-2.5-.7-4.2-1.3l-1.4-.6c-.6-.1-.8-.3-1-.3h-.4c-.4 0-.8.1-1.1.6-.3.4-.7 1-1.1 1.8h-2z"/><path d="M130.7 205.4c-4.4 0-8.2 1-11.1 2.8-3 2-4.5 4.4-4.5 7.6 0 1.9.6 3.1 1.7 4.1 1.2 1 2.6 1.4 4.1 1.4 1.4 0 2.6-.5 3.6-1.3.9-.8 1.5-2.1 1.5-3.6 0-.7 0-1.2-.3-1.8-.1-.5-.4-1.1-.8-1.5l-.4-.6c-.1-.3-.3-.4-.4-.7-.1-.2-.1-.5-.1-.8 0-.8.4-1.5 1.4-2.1.9-.5 2.1-.8 3.6-.8 2.7 0 4.6.7 5.6 1.8.9 1.3 1.5 3.1 1.5 5.5v6c-7.7 2.3-13.3 4.4-16.9 6.6-3.5 2.3-5.4 5.2-5.3 8.7 0 3.1.9 5.3 2.9 6.7 2 1.4 4.1 2.1 6.3 2.1 1.7 0 3.4-.2 5.2-.8 2.8-1 5.5-2.7 7.7-4.9.3 1.6.7 2.8 1.4 3.6 1.1 1.4 2.9 2.1 5.3 2.1 1.4 0 2.6-.3 3.9-.7 1.9-.7 3.6-2.1 5.3-3.9l-1.3-1.7c-.6.6-1 .9-1.3 1-.2.1-.5.1-.8.1-.3 0-.7-.2-1-.6-.3-.4-.4-.9-.4-1.5v-20c0-4.9-1.5-8.3-4.6-10.1-3.3-1.9-7.2-2.7-11.8-2.7zm5.1 18.9v12.2c-.8.9-1.5 1.8-2.2 2.2-1.1.8-2.4 1.2-3.8 1.2-1.1 0-2-.4-2.8-1.4-.9-.9-1.3-2.3-1.3-4.1 0-3.1 1.4-5.6 4.2-7.6 1.7-1.1 3.7-1.9 5.9-2.5zm-60.7 18.4c1.4-.3 2.5-.7 3.5-1.4s2.5-2.2 4.5-4.6c.8-1 2-2.5 3.4-4.3 1.4-1.8 2.5-3.4 3.4-4.5l-10.8-16.2c-.8-1.3-1.5-2.1-2.1-2.5-.6-.3-1.3-.6-2.2-.7v-2h20.6v2c-2 .3-3.1.4-3.4.6-.3.1-.4.4-.4 1s.7 2 2.1 4.2c1.4 2.2 2.7 3.9 3.6 5.5 2.8-3.5 4.6-5.9 5.2-6.9.7-1 1-1.8 1-2.4 0-.8-.3-1.3-1-1.5-.7-.3-1.7-.3-3.2-.4v-2h13.8v2c-1 .1-1.8.4-2.5.7-1.3.6-2.2 1.4-3.2 2.5l-8.5 10.5 12.3 18.8c.3.4.6.8 1 1 .4.3.8.4 1.4.7v2H93.7v-2c1.1 0 2.1-.1 2.8-.4.7-.3 1-.7 1-1.4 0-.4-.3-1.3-.8-2.2-.3-.6-.8-1.5-1.5-2.7-.4-.6-1-1.5-1.7-2.5-.7-1.1-1.4-2.1-2.1-3.1-1.8 2.2-3.1 3.9-4.1 5.2-1.8 2.5-2.7 4.2-2.7 4.9 0 .8.3 1.4 1 1.7.7.3 1.7.4 3.1.4v2H74.8V243z"/><path d="M73.7 234.3c-1.5 1.6-2.9 2.9-3.9 3.6-1.7 1.2-3.5 1.8-5.5 1.8-4 0-6.8-2.4-8.5-6.9-1-2.3-1.6-5.1-1.7-8.5h21.2c0-.7-.2-1.8-.3-3.2-.3-3.1-1-5.4-2-7.4-1.3-2.5-3.1-4.5-5.5-5.9-2.4-1.4-5-2.1-7.7-2.1-4.8 0-8.8 1.8-12.2 5.3-3.3 3.5-5 8.4-5.1 14.6 0 7 1.8 12.1 5.3 15.3 3.7 3.3 7.4 4.8 11.5 4.8 3 0 5.4-.5 7.6-1.5 3.3-1.7 6.3-4.6 8.8-8.8zm-18.2-22.6c.9-2.3 2.4-3.4 4.5-3.4s3.5.9 4.2 2.9c.7 2 1.1 5.3 1.1 10.1l-11.2.1c.1-4.2.6-7.5 1.4-9.7z"/><path d="M.3 188.8H50l.1 16.7h-2.4c-.8-6-2.9-9.9-6.7-12.2-2.1-1.1-5.2-1.8-9.2-2V235c0 3.1.6 5 1.5 6 1.1 1 3.2 1.5 6.7 1.5v2.1H10.4v-2.1c3.2 0 5.5-.6 6.4-1.5 1.1-1 1.5-3.1 1.5-6v-43.5c-4.1.1-7.1.7-9.2 2-3.9 2.1-6.2 6.2-6.7 12.2H0Z"/></g></svg>