<svg xmlns="http://www.w3.org/2000/svg" viewBox="0 0 448 512" fill="currentColor"><path d="M442.6 264.8c-4.6-5.6-11.4-8.8-18.6-8.8H288c-.248 0-.455.133-.701.14-8.795-11.65-19.1-21.95-30.69-30.82l72.36-72.36a23.978 23.978 0 0 0 6.766-20.5 23.98 23.98 0 0 0-12.44-17.64l-120-64c-8.395-4.48-18.595-3.59-25.995 2.24l-72 56c-10.5 8.14-12.38 23.24-4.2 33.64 8.094 10.47 23.2 12.33 33.67 4.203L194.4 100.5l77.69 41.44-59.59 59.66c-17.4-5.8-34-9.6-52.5-9.6C71.78 192 0 263.78 0 352s71.78 160 160 160 160-71.78 160-160c0-16.83-3.329-32.75-8.171-48h82.89l-26.25 131.3c-2.609 13 5.828 25.64 18.83 28.23 1.601.37 3.201.47 4.701.47 11.2 0 21.22-7.891 23.5-19.3l32-160c1.4-7-.4-14.4-4.9-19.9zM160 464c-61.75 0-112-50.25-112-112s50.25-112 112-112 112 50.25 112 112-50.2 112-112 112zM368 96c26.51 0 48-21.49 48-48S394.5 0 368 0s-48 21.49-48 48 21.5 48 48 48z"/></svg>