<svg xmlns="http://www.w3.org/2000/svg" viewBox="0 0 538.41756 245.80001">
  <title>Texas Children's</title>
  <g style="fill: #da2530" transform="translate(5.4587708,-4.1999998)">
    <path d="m 218.9,129.4 c 13.2,11.3 25.6,17.4 44.7,17.8 19.6,-0.1 32.2,-6.2 45.5,-17.8 l 34.4,-35.6 c 2.1,-2.1 5,-3.4 8.1,-3.4 6.4,0 11.6,5.2 11.6,11.6 0,3.2 -1.3,6.2 -3.4,8.3 l -45.8,44 c -12.7,10.4 -30.7,15.7 -50.7,15.7 -19.9,0 -37.9,-5.2 -50.7,-15.7 l -44.9,-43.8 c -2.1,-2.1 -3.4,-5 -3.4,-8.3 0,-6.4 5.2,-11.6 11.6,-11.6 3.2,0 6,1.3 8.1,3.4 z" />
    <path d="m 242.7,96.3 c 5.2,5.6 12.6,9.1 20.7,9.1 8.3,0 15.7,-3.5 20.9,-9.2 l 30.2,-30.4 c 2.1,-2.2 5.2,-3.6 8.4,-3.6 6.4,0 11.6,5.2 11.6,11.6 0,3.2 -1.3,6.2 -3.4,8.3 l -26.6,27 c -13.4,12.9 -21.3,21.4 -41.2,21.1 -19.2,-0.3 -26.9,-8.3 -40,-21 L 196.5,82 c -2.1,-2.1 -3.4,-5 -3.4,-8.3 0,-6.4 5.2,-11.6 11.6,-11.6 3.4,0 6.3,1.4 8.4,3.6 z" />
    <path d="m 224.8,53.5 c -2.1,-2.1 -3.5,-5 -3.5,-8.3 0,-6.4 5.2,-11.6 11.6,-11.6 3.1,0 6,1.3 8.1,3.2 l 18.5,19.3 c 1,1 2.4,1.7 3.9,1.7 1.5,0 2.8,-0.6 3.8,-1.5 l 19.2,-19.5 c 2.1,-2 4.9,-3.2 8.1,-3.2 6.4,0 11.6,5.2 11.6,11.6 0,3.2 -1.3,6.2 -3.5,8.3 L 269.7,86 c -1.5,1.7 -3.8,2.7 -6.2,2.7 -2.5,0 -4.6,-1 -6.3,-2.7 z" />
    <circle cx="263.60001" cy="19.5" r="15.3" />
  </g>
  <path d="m 530.01713,187.03269 c -4.6,0 -8.40039,3.80039 -8.40039,8.40039 0,4.59998 3.80039,8.40039 8.40039,8.40039 4.59998,0 8.40039,-3.80041 8.40039,-8.40039 0,-4.6 -3.80041,-8.40039 -8.40039,-8.40039 z m 0,1.10156 c 4,0 7.30078,3.39883 7.30078,7.29883 0,4.1 -3.20078,7.30078 -7.30078,7.30078 -4.1,0 -7.29883,-3.20078 -7.29883,-7.30078 0,-4.1 3.19883,-7.29883 7.29883,-7.29883 z m -4.29883,2.59961 v 0.40039 c 1.1,0 1.09961,0.79883 1.09961,1.79883 v 0.0996 h 0.0996 v 5 c 0,1.2 -7.8e-4,1.80078 -1.30078,1.80078 v 0.40039 h 5 v -0.40038 c -1.4,0 -1.39844,-0.50078 -1.39844,-1.80078 v -2.09961 h 0.59961 l 2.40039,4.30078 h 2.79883 v -0.40039 c -0.7,0 -1.10039,-0.80039 -1.40039,-1.40039 l -1.5,-2.69922 c 1.1,-0.3 2.10156,-1.2 2.10156,-2.5 0,-1.7 -1.50156,-2.5 -3.60156,-2.5 z m 3.39844,0.40039 h 0.5 c 1.7,0 2,1.2 2,2 0,1.1 -0.49883,2.09961 -1.79883,2.09961 -0.3,0 -0.60117,-0.0996 -0.70117,-0.0996 z" />
  <g style="fill: #000000" transform="translate(-2.6,-4.1999998)">
    <path d="m 482.9,218.4 c 2.5,-1.7 4.3,-3.2 5.6,-4.5 2.2,-2.2 3.4,-4.3 3.4,-6.4 0,-0.6 -0.1,-1 -0.4,-1.4 -0.3,-0.3 -0.7,-0.6 -1.3,-0.6 -1,0.1 -1.5,0.1 -1.8,0.1 -1.8,0 -3.2,-0.6 -4.5,-1.8 -1.1,-1.3 -1.7,-2.8 -1.7,-4.6 0,-2.1 0.6,-3.8 1.8,-5 1.3,-1.3 2.9,-2 5,-2 2.4,0 4.3,0.8 5.9,2.5 1.6,1.7 2.4,4.1 2.4,7 0,4.3 -1.7,8.1 -4.9,11.8 -2.1,2.2 -5,4.3 -8.8,6.4 z" />
    <path d="m 496.9,235.9 h 2.2 c 0.8,3.9 2.2,6.7 4.5,8.3 2.2,1.7 4.5,2.4 6.7,2.4 2.1,0 3.6,-0.4 4.6,-1.4 1,-1 1.5,-2.2 1.5,-3.8 0,-1.5 -0.6,-2.8 -1.7,-3.8 -0.6,-0.6 -1.5,-1.1 -2.8,-1.8 l -6.2,-2.9 c -3.2,-1.5 -5.5,-3.4 -6.9,-5.2 -1.4,-1.8 -2.1,-4.1 -2.1,-6.6 0,-3.2 1.1,-6 3.4,-8.3 2.2,-2.4 5.3,-3.5 9.4,-3.5 1.8,0 3.6,0.3 5.6,0.8 2,0.5 3.2,0.8 3.6,0.8 0.7,0 1.1,-0.1 1.4,-0.4 0.3,-0.3 0.6,-0.7 0.7,-1.3 h 1.8 v 11.9 h -1.9 c -0.8,-2.8 -2.1,-5 -3.9,-6.7 -1.8,-1.7 -3.9,-2.5 -6.3,-2.5 -1.8,0 -3.2,0.6 -4.1,1.5 -0.8,1 -1.4,2.1 -1.4,3.4 0,1 0.4,2 1.3,2.9 0.8,1 2.2,2 4.5,3.1 l 4.5,2.2 c 2.8,1.4 4.9,2.7 6.2,3.9 2.1,2.1 3.2,4.8 3.2,8 0,3.1 -1.1,5.9 -3.4,8.5 -2.3,2.6 -5.6,3.9 -9.9,3.9 -1.1,0 -2.2,-0.1 -3.4,-0.3 -1.1,-0.3 -2.5,-0.7 -4.2,-1.3 l -1.4,-0.6 c -0.6,-0.1 -0.8,-0.3 -1,-0.3 H 501 c -0.4,0 -0.8,0.1 -1.3,0.6 -0.3,0.4 -0.7,1 -1.1,1.8 h -2 v -13.6 z" />
    <path d="m 440.2,246.4 c 1.5,-0.1 2.7,-0.6 3.4,-1.3 0.7,-0.7 1.1,-1.8 1.1,-3.8 v -24.2 c 0,-1.7 -0.3,-2.8 -0.8,-3.5 -0.6,-0.7 -1.8,-1.1 -3.5,-1.3 v -2 h 15.5 v 5.9 c 1.3,-2 2.9,-3.6 5,-4.9 2,-1.3 4.3,-2 6.7,-2 3.5,0 6.3,1 8.3,2.8 2,1.8 2.9,5 2.9,9.7 v 20 c 0,1.8 0.3,3.1 1,3.5 0.7,0.6 1.7,0.8 3.2,1.1 v 2 h -19.5 v -2 c 1.5,-0.3 2.5,-0.7 3.1,-1.3 0.6,-0.6 0.8,-1.7 0.8,-3.5 v -20 c 0,-1.8 -0.1,-3.4 -0.6,-4.2 -0.7,-1.7 -2,-2.5 -3.8,-2.5 -1.4,0 -2.8,0.6 -3.9,1.5 -1.3,1 -2.1,2.1 -2.8,3.1 v 22.1 c 0,1.8 0.3,2.9 0.8,3.5 0.6,0.6 1.5,1 3.1,1.3 v 2 h -19.9 v -2.1 z" />
    <path d="m 425.80078,209.30078 c -4.79999,0 -8.80117,1.79883 -12.20117,5.29883 -3.3,3.5 -5.00039,8.39961 -4.90039,14.59961 0,6.99999 1.80078,12.10078 5.30078,15.30078 3.7,3.3 7.4,4.80078 11.5,4.80078 3,0 5.39961,-0.4 7.59961,-1.5 3.3,-1.7 6.30078,-4.60078 8.80078,-8.80078 l -2,-1.09961 C 438.40039,239.50039 437,240.8 436,241.5 c -1.7,1.2 -3.5,1.80078 -5.5,1.80078 -4,0 -6.8,-2.40039 -8.5,-6.90039 -1,-2.3 -1.59922,-5.1 -1.69922,-8.5 h 21 c 0,-0.7 -0.20078,-1.80117 -0.30078,-3.20117 -0.3,-3.1 -1,-5.39844 -2,-7.39844 -1.3,-2.5 -3.1,-4.50039 -5.5,-5.90039 -2.4,-1.4 -4.99922,-2.09961 -7.69922,-2.09961 z m 0,2.69922 c 2.1,0 3.49922,0.90039 4.19922,2.90039 0.7,2 1.09961,5.29961 1.09961,10.09961 l -11.19922,0.0996 c 0.1,-4.2 0.60039,-7.49922 1.40039,-9.69922 0.9,-2.3 2.4,-3.40039 4.5,-3.40039 z" />
    <path d="m 377.5,246.4 c 1.5,-0.1 2.7,-0.6 3.4,-1.1 0.6,-0.6 1,-1.7 1,-3.2 l 0.1,-2.4 v -22.4 c 0,-1.7 -0.3,-2.9 -0.8,-3.5 -0.6,-0.6 -1.8,-1 -3.5,-1.3 v -2 h 15.5 v 6.4 c 1.8,-2.2 3.5,-4.1 5.2,-5.5 1.7,-1.4 3.8,-2 6,-2 1.7,0 3.2,0.6 4.6,1.7 1.4,1.1 2.1,2.7 2.1,4.8 0,1.7 -0.4,2.9 -1.4,3.9 -1,1 -2.2,1.5 -3.8,1.5 -1.8,0 -3.2,-0.8 -4.6,-2.5 -1.3,-1.7 -2.2,-2.5 -2.7,-2.5 -1.1,0 -2.2,0.7 -3.4,2 -1.1,1.4 -1.7,3.4 -1.7,5.9 v 15.7 c 0,2.7 0.4,4.5 1.3,5 0.8,0.7 2.4,1.1 4.8,1.4 v 2 h -22 z" />
    <path d="m 356,192.59961 v 2 c 2.5,0.2 4.1,0.5 5,1 0.9,0.5 1.30078,1.80039 1.30078,3.90039 v 15.09961 c -1.5,-1.7 -2.90039,-2.8 -3.90039,-3.5 -1.8,-1.1 -3.70039,-1.69922 -5.90039,-1.69922 -4.3,0 -8.09922,1.79961 -11.19922,5.59961 -3.1,3.8 -4.70078,8.99922 -4.80078,15.19922 0,5.79999 1.6,10.50039 4.5,13.90039 2.9,3.5 6.4,5.20117 10.5,5.20117 2.4,0 4.49961,-0.50078 6.59961,-1.80078 1.4,-0.7 2.80078,-2 4.30078,-3.5 v 5.5 c 3.3,-0.9 5.69961,-1.39922 7.09961,-1.69922 1.3,-0.2 4.4,-0.6 9,-1 v -2 c -1.8,-0.1 -3.10078,-0.40156 -3.80078,-1.10156 -0.7,-0.7 -1,-1.8 -1,-3.5 V 192.59961 Z M 355.59961,214 c 2,0 3.50078,0.7 4.80078,2 1.2,1.2 1.79883,2.20039 1.79883,2.90039 v 20.19922 c 0,0.7 -0.69961,1.90039 -2.09961,3.40039 -1.4,1.5 -2.99883,2.3 -4.79883,2.5 -2.8,0 -4.70117,-2.00039 -5.70117,-5.90039 -0.5,-2.3 -0.79883,-5.49922 -0.79883,-9.69922 0,-3.9 0.19883,-7.00117 0.79883,-9.20117 1.1,-4.1 3.1,-6.19922 6,-6.19922 z" />
    <path d="m 317.5,246.4 c 1.4,-0.3 2.5,-0.8 3.1,-1.4 0.6,-0.6 0.8,-1.8 0.8,-3.6 v -42 c 0,-1.8 -0.3,-2.9 -0.8,-3.5 -0.6,-0.6 -1.5,-1 -3.1,-1.4 v -2 H 333 v 48.9 c 0,1.8 0.3,3.1 0.8,3.6 0.6,0.6 1.7,1 3.2,1.4 v 2 h -19.7 v -2 z" />
    <path d="m 308.90039,191.5 c -1.7,0 -3.2,0.50078 -4.5,1.80078 -1.2,1.3 -1.90078,2.8 -1.80078,4.5 0,1.7 0.50078,3.2 1.80078,4.5 1.1,1.2 2.7,1.79883 4.5,1.79883 1.7,0 3.2,-0.49883 4.5,-1.79883 1.1,-1.3 1.79883,-2.7 1.79883,-4.5 0,-1.7 -0.49883,-3.2 -1.79883,-4.5 -1.3,-1.2 -2.7,-1.80078 -4.5,-1.80078 z m -10.09961,18.80078 v 2 c 1.7,0.3 2.79844,0.79844 3.39844,1.39844 0.5,0.7 0.80078,1.8 0.80078,3.5 v 24.20117 c 0,1.8 -0.29961,3.20039 -1.09961,3.90039 -0.5,0.5 -1.50039,0.79961 -2.90039,1.09961 L 298.80078,248.5 h 19.59961 v -2 c -1.6,-0.5 -2.49961,-0.70078 -3.09961,-1.30078 -0.5,-0.6 -0.80078,-1.7 -0.80078,-3.5 v -31.39844 z" />
    <path d="m 257.5,246.4 c 1.5,-0.1 2.7,-0.6 3.4,-1.3 0.7,-0.7 1.1,-1.8 1.1,-3.8 v -42 c 0,-1.7 -0.3,-2.8 -0.8,-3.5 -0.5,-0.7 -1.8,-1.1 -3.5,-1.3 v -2 h 16 v 23.2 c 1.7,-2.1 3.5,-3.6 5.3,-4.8 1.8,-1.1 3.9,-1.7 6.3,-1.7 3.2,0 5.7,1 7.8,2.8 2.1,1.8 3.1,5 3.1,9.4 v 19.9 c 0,1.8 0.3,3.1 1,3.6 0.7,0.6 1.7,1 3.2,1.4 v 2 h -19.6 v -2 c 1.5,-0.3 2.5,-0.7 3.1,-1.3 0.6,-0.6 0.8,-1.7 0.8,-3.5 v -20 c 0,-1.8 -0.1,-3.4 -0.6,-4.2 -0.7,-1.7 -2,-2.5 -3.8,-2.5 -1.4,0 -2.9,0.7 -4.5,2 -1.6,1.3 -2.2,2.2 -2.2,2.7 v 22.1 c 0,1.8 0.3,2.9 0.8,3.5 0.6,0.6 1.5,1 3.1,1.3 v 2 h -19.8 v -2.1 z" />
    <path d="m 243.4,193.5 c 3.5,1.3 5.5,2 5.9,2 1.1,0 1.8,-0.4 2.5,-1.3 0.7,-0.8 1,-1.7 1.3,-2.7 h 2.4 v 19.3 h -2.1 c -2,-4.2 -4.1,-7.6 -6.2,-9.9 -3.9,-4.5 -8.3,-6.7 -13.2,-6.7 -5.6,0 -9.5,2.4 -11.8,7.1 -2.4,4.8 -3.5,11.2 -3.5,19.2 0,5.9 0.7,10.8 2.1,14.6 2.5,7.1 7.3,10.8 14.1,10.8 4.2,0 8.1,-1.1 11.8,-3.5 2.1,-1.4 4.6,-3.5 7.4,-6.6 l 2.5,2.1 c -3.2,3.6 -6,6.2 -8.5,7.8 -4.3,2.9 -9.2,4.3 -14.6,4.3 -8.1,0 -15,-2.4 -20.4,-7.3 -6.2,-5.3 -9.1,-12.6 -9.1,-21.6 0,-9 2.9,-16.2 8.8,-21.8 5.5,-5.2 12.2,-7.8 20.2,-7.8 3.4,0 6.9,0.7 10.4,2 z" />
    <path d="m 154.2,236.4 h 2.2 c 0.8,3.9 2.2,6.7 4.5,8.3 2.2,1.7 4.5,2.4 6.7,2.4 2.1,0 3.6,-0.4 4.6,-1.4 1,-1 1.5,-2.2 1.5,-3.8 0,-1.5 -0.6,-2.8 -1.7,-3.8 -0.6,-0.6 -1.5,-1.1 -2.8,-1.8 l -6.2,-2.9 c -3.2,-1.5 -5.5,-3.4 -6.9,-5.2 -1.4,-1.8 -2.1,-4.1 -2.1,-6.6 0,-3.2 1.1,-6 3.4,-8.3 2.2,-2.4 5.3,-3.5 9.4,-3.5 1.8,0 3.6,0.3 5.6,0.8 2,0.6 3.2,0.8 3.6,0.8 0.7,0 1.1,-0.1 1.4,-0.4 0.3,-0.3 0.6,-0.7 0.7,-1.3 h 1.8 v 11.9 h -2.1 c -0.8,-2.8 -2.1,-5 -3.9,-6.7 -1.8,-1.7 -3.9,-2.5 -6.3,-2.5 -1.8,0 -3.2,0.6 -4.1,1.5 -0.8,1 -1.4,2.1 -1.4,3.4 0,1 0.4,2 1.3,2.9 0.8,1 2.2,2 4.5,3.1 l 4.5,2.2 c 2.8,1.4 4.9,2.7 6.2,3.9 2.1,2.1 3.2,4.8 3.2,8 0,3.1 -1.1,5.9 -3.4,8.5 -2.2,2.7 -5.6,3.9 -9.9,3.9 -1.1,0 -2.2,-0.1 -3.4,-0.3 -1.1,-0.3 -2.5,-0.7 -4.2,-1.3 l -1.4,-0.6 c -0.6,-0.1 -0.8,-0.3 -1,-0.3 h -0.4 c -0.4,0 -0.8,0.1 -1.1,0.6 -0.3,0.4 -0.7,1 -1.1,1.8 h -2 z" />
    <path d="m 133.30078,209.59961 c -4.39999,0 -8.20156,1.00078 -11.10156,2.80078 -3,2 -4.5,4.39961 -4.5,7.59961 0,1.9 0.60117,3.09961 1.70117,4.09961 1.2,1 2.59961,1.40039 4.09961,1.40039 1.4,0 2.59961,-0.50078 3.59961,-1.30078 0.9,-0.8 1.5,-2.09961 1.5,-3.59961 0,-0.7 10e-4,-1.19883 -0.29883,-1.79883 -0.1,-0.5 -0.40078,-1.1 -0.80078,-1.5 l -0.40039,-0.60156 c -0.1,-0.3 -0.30039,-0.39922 -0.40039,-0.69922 -0.1,-0.2 -0.0996,-0.50078 -0.0996,-0.80078 0,-0.8 0.40039,-1.49961 1.40039,-2.09961 0.9,-0.5 2.09961,-0.79883 3.59961,-0.79883 2.7,0 4.59961,0.69883 5.59961,1.79883 0.9,1.3 1.5,3.1 1.5,5.5 v 6 c -7.69999,2.3 -13.29844,4.39961 -16.89844,6.59961 -3.5,2.3 -5.40078,5.20117 -5.30078,8.70117 0,3.1 0.90039,5.29922 2.90039,6.69922 2,1.4 4.09883,2.09961 6.29883,2.09961 1.7,0 3.40117,-0.19883 5.20117,-0.79883 2.8,-1 5.49922,-2.70039 7.69922,-4.90039 0.3,1.6 0.70039,2.79961 1.40039,3.59961 1.1,1.4 2.90078,2.09961 5.30078,2.09961 1.4,0 2.59844,-0.29922 3.89844,-0.69922 1.9,-0.7 3.60078,-2.10039 5.30078,-3.90039 l -1.30078,-1.69922 c -0.6,0.6 -0.99883,0.9 -1.29883,1 -0.2,0.1 -0.50078,0.0996 -0.80078,0.0996 -0.3,0 -0.7,-0.19961 -1,-0.59961 -0.3,-0.4 -0.40039,-0.9 -0.40039,-1.5 v -20 c 0,-4.89999 -1.49961,-8.29961 -4.59961,-10.09961 -3.3,-1.9 -7.19883,-2.70117 -11.79883,-2.70117 z M 138.40039,228.5 v 12.19922 c -0.8,0.9 -1.50117,1.80117 -2.20117,2.20117 -1.1,0.8 -2.39883,1.19922 -3.79883,1.19922 -1.1,0 -2.00078,-0.40039 -2.80078,-1.40039 -0.9,-0.9 -1.29883,-2.29961 -1.29883,-4.09961 0,-3.1 1.39922,-5.59961 4.19922,-7.59961 1.7,-1.1 3.70039,-1.9 5.90039,-2.5 z" />
    <path d="m 77.7,246.9 c 1.4,-0.3 2.5,-0.7 3.5,-1.4 1,-0.7 2.5,-2.2 4.5,-4.6 0.8,-1 2,-2.5 3.4,-4.3 1.4,-1.8 2.5,-3.4 3.4,-4.5 L 81.7,215.9 c -0.8,-1.3 -1.5,-2.1 -2.1,-2.5 -0.6,-0.3 -1.3,-0.6 -2.2,-0.7 v -2 H 98 v 2 c -2,0.3 -3.1,0.4 -3.4,0.6 -0.3,0.1 -0.4,0.4 -0.4,1 0,0.6 0.7,2 2.1,4.2 1.4,2.2 2.7,3.9 3.6,5.5 2.8,-3.5 4.6,-5.9 5.2,-6.9 0.7,-1 1,-1.8 1,-2.4 0,-0.8 -0.3,-1.3 -1,-1.5 -0.7,-0.3 -1.7,-0.3 -3.2,-0.4 v -2 h 13.8 v 2 c -1,0.1 -1.8,0.4 -2.5,0.7 -1.3,0.6 -2.2,1.4 -3.2,2.5 l -8.5,10.5 12.3,18.8 c 0.3,0.4 0.6,0.8 1,1 0.4,0.3 0.8,0.4 1.4,0.7 v 2 H 96.3 v -2 c 1.1,0 2.1,-0.1 2.8,-0.4 0.7,-0.3 1,-0.7 1,-1.4 0,-0.4 -0.3,-1.3 -0.8,-2.2 -0.3,-0.6 -0.8,-1.5 -1.5,-2.7 -0.4,-0.6 -1,-1.5 -1.7,-2.5 -0.7,-1.1 -1.4,-2.1 -2.1,-3.1 -1.8,2.2 -3.1,3.9 -4.1,5.2 -1.8,2.5 -2.7,4.2 -2.7,4.9 0,0.8 0.3,1.4 1,1.7 0.7,0.3 1.7,0.4 3.1,0.4 v 2 H 77.4 v -1.7 z" />
    <path d="m 76.3,238.5 c -1.5,1.6 -2.9,2.9 -3.9,3.6 -1.7,1.2 -3.5,1.8 -5.5,1.8 -4,0 -6.8,-2.4 -8.5,-6.9 -1,-2.3 -1.6,-5.1 -1.7,-8.5 h 21.2 c 0,-0.7 -0.2,-1.8 -0.3,-3.2 -0.3,-3.1 -1,-5.4 -2,-7.4 -1.3,-2.5 -3.1,-4.5 -5.5,-5.9 -2.4,-1.4 -5,-2.1 -7.7,-2.1 -4.8,0 -8.8,1.8 -12.2,5.3 -3.3,3.5 -5,8.4 -5.1,14.6 0,7 1.8,12.1 5.3,15.3 3.7,3.3 7.4,4.8 11.5,4.8 3,0 5.4,-0.5 7.6,-1.5 3.3,-1.7 6.3,-4.6 8.8,-8.8 z M 58.1,215.9 c 0.9,-2.3 2.4,-3.4 4.5,-3.4 2.1,0 3.5,0.9 4.2,2.9 0.7,2 1.1,5.3 1.1,10.1 l -11.2,0.1 c 0.1,-4.2 0.6,-7.5 1.4,-9.7 z" />
    <path d="m 2.9,193 h 49.7 l 0.1,16.7 h -2.4 c -0.8,-6 -2.9,-9.9 -6.7,-12.2 -2.1,-1.1 -5.2,-1.8 -9.2,-2 v 43.7 c 0,3.1 0.6,5 1.5,6 1.1,1 3.2,1.5 6.7,1.5 v 2.1 H 13 v -2.1 c 3.2,0 5.5,-0.6 6.4,-1.5 1.1,-1 1.5,-3.1 1.5,-6 v -43.5 c -4.1,0.1 -7.1,0.7 -9.2,2 -3.9,2.1 -6.2,6.2 -6.7,12.2 H 2.6 Z" />
  </g>
</svg>
