<?xml version="1.0" encoding="utf-8"?>
<!-- Generator: Adobe Illustrator 26.2.1, SVG Export Plug-In . SVG Version: 6.00 Build 0)  -->
<svg version="1.1" id="Layer_1" xmlns="http://www.w3.org/2000/svg" xmlns:xlink="http://www.w3.org/1999/xlink" x="0px" y="0px"
	 viewBox="0 0 452.73 60.07" style="enable-background:new 0 0 452.73 60.07;" xml:space="preserve">
<style type="text/css">
	.st0{fill:none;}
	.st1{fill:#E51B27;}
</style>
<g>
	<path class="st0" d="M323.9,25.55c-2.02,0-3.39,1.4-4.12,4.19c-0.39,1.5-0.58,3.61-0.58,6.35c0,2.92,0.18,5.12,0.56,6.6
		c0.68,2.68,2,4.02,3.95,4.02c1.23,0,2.32-0.55,3.29-1.64s1.46-1.86,1.46-2.3v-13.8c0-0.46-0.42-1.15-1.25-2.05
		C326.38,26.01,325.28,25.55,323.9,25.55z"/>
	<path class="st0" d="M375.31,26.08c-0.48-1.33-1.45-2-2.89-2c-1.48,0-2.5,0.77-3.05,2.3c-0.55,1.53-0.86,3.77-0.93,6.71h7.65
		C376.06,29.75,375.8,27.41,375.31,26.08z"/>
	<path class="st0" d="M170.99,42.09c0,1.24,0.28,2.18,0.85,2.82c0.56,0.64,1.2,0.96,1.9,0.96c0.92,0,1.78-0.28,2.58-0.83
		c0.44-0.33,0.97-0.85,1.58-1.56v-8.31c-1.52,0.37-2.85,0.95-3.99,1.75C171.96,38.28,170.99,40,170.99,42.09z"/>
	<path class="st0" d="M129.63,26.08c-0.48-1.33-1.45-2-2.89-2c-1.48,0-2.5,0.77-3.05,2.3c-0.55,1.53-0.86,3.77-0.93,6.71h7.65
		C130.37,29.75,130.11,27.41,129.63,26.08z"/>
	<path class="st0" d="M447.15,0.78c-2.65,0-4.81,2.16-4.81,4.81c0,2.65,2.16,4.81,4.81,4.81c2.65,0,4.79-2.16,4.79-4.81
		C451.94,2.94,449.8,0.78,447.15,0.78z M450.41,8.63h-1.88l-1.58-2.86h-0.35v1.35c0,0.82,0,1.22,0.92,1.22v0.29h-3.27V8.35
		c0.81,0,0.81-0.4,0.81-1.22V3.86c0-0.67,0-1.21-0.7-1.21V2.37h3.21c1.34,0,2.36,0.54,2.36,1.68c0,0.84-0.6,1.43-1.4,1.62l0.97,1.76
		c0.19,0.34,0.47,0.92,0.9,0.92V8.63z"/>
	<path class="st0" d="M446.96,2.72h-0.36v2.67c0.09,0.03,0.28,0.05,0.43,0.05c0.79,0,1.23-0.68,1.23-1.41
		C448.26,3.44,448.07,2.72,446.96,2.72z"/>
	<path d="M113.4,13.89c2.53,1.45,4.07,4.22,4.6,8.31h1.64l-0.06-11.45H85.4L85.35,22.2h1.64c0.35-4.06,1.88-6.83,4.6-8.31
		c1.48-0.8,3.6-1.23,6.38-1.31v29.91c0,2.07-0.36,3.46-1.09,4.15c-0.73,0.69-2.2,1.04-4.42,1.04v1.44h20.24v-1.44
		c-2.31,0-3.83-0.34-4.56-1.03c-0.73-0.69-1.09-2.07-1.09-4.16V12.58C109.85,12.65,111.98,13.09,113.4,13.89z"/>
	<path d="M136.34,42.02c-1.07,1.18-1.97,2.02-2.69,2.52c-1.19,0.83-2.44,1.25-3.78,1.25c-2.8,0-4.75-1.56-5.86-4.68
		c-0.61-1.66-0.98-3.63-1.11-5.9h14.5c0-0.52-0.06-1.27-0.19-2.25c-0.26-2.09-0.72-3.79-1.39-5.1c-0.89-1.74-2.16-3.1-3.8-4.07
		c-1.65-0.98-3.4-1.47-5.27-1.47c-3.28,0-6.07,1.21-8.4,3.62c-2.32,2.41-3.48,5.8-3.48,10.16c0,4.82,1.22,8.34,3.66,10.53
		c2.44,2.2,5.06,3.3,7.85,3.3c1.94,0,3.66-0.36,5.16-1.08c2.31-1.13,4.35-3.13,6.11-6.01L136.34,42.02z M123.69,26.39
		c0.55-1.53,1.56-2.3,3.05-2.3c1.45,0,2.41,0.67,2.89,2c0.48,1.33,0.74,3.67,0.78,7.01h-7.65
		C122.83,30.16,123.14,27.92,123.69,26.39z"/>
	<path d="M161.61,46.62l-8.48-12.88L159,26.5c0.61-0.76,1.33-1.32,2.18-1.69c0.46-0.18,1.04-0.34,1.74-0.47v-1.36h-9.51v1.36
		c1.03,0.04,1.78,0.13,2.23,0.28s0.68,0.5,0.68,1.06c0,0.44-0.23,1-0.69,1.66c-0.46,0.67-1.67,2.23-3.62,4.68
		c-0.73-0.98-1.56-2.23-2.51-3.73c-0.95-1.5-1.43-2.47-1.43-2.89c0-0.35,0.11-0.57,0.33-0.65s0.99-0.22,2.3-0.4v-1.36h-14.19v1.36
		c0.68,0.09,1.2,0.25,1.55,0.47c0.35,0.22,0.82,0.79,1.41,1.69l7.29,11.18c-0.61,0.78-1.39,1.79-2.33,3.05
		c-0.94,1.26-1.7,2.24-2.27,2.95c-1.39,1.68-2.42,2.76-3.09,3.22c-0.68,0.46-1.48,0.77-2.43,0.91v1.3h9.59v-1.3
		c-0.94-0.04-1.65-0.15-2.12-0.33c-0.47-0.18-0.71-0.57-0.71-1.17c0-0.5,0.62-1.62,1.86-3.36c0.6-0.84,1.51-2.04,2.72-3.59
		c0.42,0.65,0.89,1.36,1.4,2.12c0.51,0.76,0.9,1.35,1.18,1.78c0.5,0.78,0.86,1.38,1.08,1.8c0.39,0.7,0.58,1.21,0.58,1.53
		c0,0.48-0.23,0.79-0.69,0.94c-0.46,0.15-1.09,0.24-1.88,0.28v1.3h13.67v-1.3c-0.42-0.16-0.76-0.33-1.01-0.48
		C162.04,47.17,161.81,46.94,161.61,46.62z"/>
	<path d="M200.92,33.15l-3.11-1.5c-1.5-0.72-2.51-1.42-3.05-2.11c-0.55-0.67-0.83-1.33-0.83-2c0-0.81,0.31-1.57,0.93-2.27
		c0.62-0.7,1.56-1.05,2.81-1.05c1.63,0,3.05,0.58,4.27,1.75c1.22,1.16,2.1,2.71,2.63,4.63h1.44v-8.21h-1.25
		c-0.13,0.35-0.29,0.62-0.49,0.82c-0.19,0.19-0.52,0.29-0.98,0.29c-0.33,0-1.17-0.2-2.52-0.6c-1.35-0.4-2.62-0.6-3.83-0.6
		c-2.75,0-4.9,0.8-6.43,2.4c-1.53,1.6-2.3,3.5-2.3,5.7c0,1.74,0.49,3.24,1.47,4.52c0.96,1.28,2.55,2.46,4.77,3.55l4.21,2.05
		c0.91,0.44,1.56,0.86,1.97,1.25c0.74,0.72,1.11,1.59,1.11,2.61c0,1.07-0.34,1.93-1.03,2.59c-0.68,0.66-1.76,0.98-3.22,0.98
		c-1.59,0-3.14-0.56-4.66-1.68c-1.52-1.12-2.55-3.04-3.1-5.75h-1.58v5.01l-0.01-0.02c-0.37,0.37-0.64,0.6-0.82,0.68
		c-0.18,0.08-0.38,0.13-0.6,0.13c-0.26,0-0.49-0.14-0.71-0.43c-0.21-0.28-0.32-0.63-0.32-1.04V31.1c0-3.36-1.07-5.67-3.22-6.93
		c-2.16-1.24-4.85-1.86-8.07-1.86c-2.99,0-5.52,0.64-7.57,1.91c-2.05,1.27-3.08,3-3.08,5.17c0,1.22,0.38,2.15,1.15,2.79
		c0.77,0.64,1.7,0.97,2.79,0.97c0.94,0,1.77-0.29,2.48-0.87s1.07-1.41,1.07-2.48c0-0.42-0.08-0.83-0.23-1.21
		c-0.16-0.38-0.36-0.72-0.62-1.04l-0.33-0.39c-0.15-0.17-0.26-0.32-0.33-0.47c-0.07-0.15-0.11-0.33-0.11-0.56
		c0-0.57,0.33-1.05,0.98-1.43c0.66-0.38,1.49-0.57,2.51-0.57c1.81,0,3.07,0.4,3.78,1.21c0.71,0.8,1.07,2.05,1.07,3.73v4.13
		c-5.25,1.52-9.1,3.03-11.56,4.53c-2.46,1.5-3.69,3.53-3.69,6.08c0,2.09,0.67,3.63,2.02,4.63c1.35,0.99,2.8,1.48,4.35,1.48
		c1.16,0,2.35-0.2,3.55-0.61c1.98-0.65,3.75-1.76,5.32-3.33c0.2,1.09,0.53,1.92,0.97,2.47c0.78,0.98,2,1.47,3.69,1.47
		c0.94,0,1.84-0.16,2.69-0.5c1.02-0.39,1.96-1,2.84-1.83v2.33h1.36c0.3-0.59,0.56-1.01,0.79-1.26c0.23-0.25,0.5-0.38,0.82-0.38
		c0.13,0,0.23,0.01,0.32,0.03c0.08,0.02,0.3,0.09,0.65,0.22l0.97,0.33c1.13,0.39,2.07,0.66,2.84,0.82c0.77,0.16,1.53,0.23,2.29,0.23
		c3.05,0,5.34-0.91,6.86-2.73c1.53-1.82,2.29-3.78,2.29-5.89c0-2.16-0.74-3.98-2.22-5.46C204.24,34.97,202.84,34.07,200.92,33.15z
		 M177.9,43.48c-0.61,0.7-1.14,1.22-1.58,1.56c-0.79,0.56-1.65,0.83-2.58,0.83c-0.7,0-1.34-0.32-1.9-0.96
		c-0.56-0.64-0.85-1.58-0.85-2.82c0-2.09,0.97-3.82,2.91-5.17c1.15-0.8,2.48-1.38,3.99-1.75V43.48z"/>
	<path d="M248.61,45.04c-2.51,1.63-5.22,2.44-8.14,2.44c-4.76,0-8.02-2.46-9.77-7.37c-0.94-2.62-1.41-5.97-1.41-10.03
		c0-5.53,0.8-9.93,2.39-13.21c1.6-3.28,4.29-4.92,8.1-4.92c3.36,0,6.37,1.53,9.03,4.6c1.42,1.66,2.81,3.94,4.18,6.82h1.44V10.09
		h-1.58c-0.11,0.61-0.38,1.19-0.82,1.75s-1.01,0.83-1.74,0.83c-0.28,0-1.62-0.44-4.05-1.32c-2.42-0.88-4.81-1.32-7.18-1.32
		c-5.47,0-10.09,1.79-13.86,5.38c-4.01,3.83-6.01,8.83-6.01,15c0,6.23,2.1,11.18,6.29,14.86c3.79,3.33,8.48,4.99,14.08,4.99
		c3.66,0,6.99-0.99,9.98-2.97c1.68-1.11,3.63-2.9,5.85-5.38l-1.69-1.39C251.74,42.59,250.05,44.1,248.61,45.04z"/>
	<path d="M291.6,18.71c1.2,0,2.23-0.43,3.09-1.29c0.86-0.86,1.29-1.9,1.29-3.12c0-1.22-0.43-2.26-1.29-3.12
		c-0.86-0.86-1.89-1.29-3.09-1.29c-1.22,0-2.26,0.43-3.12,1.29c-0.86,0.86-1.29,1.9-1.29,3.12c0,1.22,0.43,2.26,1.29,3.12
		C289.34,18.28,290.38,18.71,291.6,18.71z"/>
	<path d="M308.27,44.32V10.75h-10.75v1.36c1.05,0.24,1.77,0.55,2.16,0.92c0.39,0.37,0.58,1.17,0.58,2.38v28.91
		c0,1.26-0.21,2.08-0.63,2.48c-0.37,0.35-0.97,0.64-1.79,0.87c-0.8-0.19-1.38-0.44-1.7-0.74c-0.37-0.35-0.55-1.15-0.55-2.38V22.98
		h-10.9v1.36c1.15,0.21,1.91,0.52,2.3,0.94c0.39,0.42,0.58,1.21,0.58,2.36v16.69c0,1.29-0.28,2.19-0.83,2.69
		c-0.31,0.28-0.87,0.5-1.64,0.67c-0.84-0.22-1.47-0.49-1.85-0.85c-0.43-0.4-0.65-1.23-0.65-2.51V30.68c0-3.05-0.71-5.21-2.14-6.47
		c-1.42-1.27-3.22-1.9-5.41-1.9c-1.61,0-3.05,0.38-4.34,1.15c-1.28,0.77-2.51,1.85-3.67,3.26V10.75h-10.98v1.36
		c1.2,0.15,2,0.45,2.41,0.91c0.41,0.46,0.61,1.25,0.61,2.39v28.91c0,1.29-0.24,2.16-0.74,2.59c-0.49,0.43-1.25,0.72-2.29,0.85v1.36
		h13.67v-1.36c-1.01-0.21-1.71-0.48-2.08-0.83c-0.37-0.35-0.56-1.15-0.56-2.38V29.35c0-0.33,0.52-0.95,1.57-1.86
		c1.04-0.9,2.06-1.36,3.04-1.36c1.31,0,2.19,0.58,2.63,1.75c0.26,0.65,0.39,1.62,0.39,2.91v13.75c0,1.24-0.18,2.03-0.55,2.38
		s-1.06,0.63-2.08,0.83v1.36h12.6h0.74h12.09h0.71h12.82v-1.36c-1.03-0.26-1.75-0.58-2.16-0.97
		C308.47,46.4,308.27,45.58,308.27,44.32z"/>
	<path d="M362.08,26.72c0-1.44-0.47-2.54-1.4-3.29s-1.99-1.12-3.15-1.12c-1.56,0-2.93,0.46-4.11,1.39
		c-1.18,0.92-2.38,2.17-3.58,3.74v-4.46h-10.75v1.36c1.2,0.15,2,0.44,2.41,0.87c0.4,0.43,0.61,1.24,0.61,2.43v15.44l-0.06,1.66
		c-0.04,1.11-0.27,1.86-0.69,2.25c-0.34,0.31-0.89,0.53-1.65,0.68V46.7c-1.3-0.11-2.16-0.39-2.61-0.84
		c-0.45-0.45-0.67-1.26-0.67-2.43V10.75H324.2v1.36c1.74,0.07,2.88,0.28,3.44,0.63c0.56,0.35,0.83,1.24,0.83,2.67v10.4
		c-1.09-1.14-1.99-1.94-2.71-2.38c-1.17-0.74-2.5-1.11-3.99-1.11c-3,0-5.56,1.3-7.69,3.9c-2.13,2.6-3.2,6.14-3.2,10.63
		c0,4.03,1.02,7.22,3.07,9.56c2.05,2.35,4.46,3.52,7.24,3.52c1.63,0,3.14-0.43,4.55-1.28c0.89-0.54,1.87-1.36,2.94-2.47v3.74
		c2.33-0.65,3.96-1.05,4.88-1.2c0.86-0.15,2.71-0.36,5.53-0.64v1.05h15.11v-1.36c-1.63-0.15-2.71-0.45-3.26-0.92
		c-0.55-0.47-0.82-1.64-0.82-3.51V32.57c0-1.74,0.38-3.08,1.15-4.01c0.77-0.93,1.53-1.4,2.29-1.4c0.35,0,0.97,0.56,1.85,1.69
		c0.88,1.13,1.92,1.69,3.12,1.69c1.06,0,1.91-0.36,2.57-1.08C361.75,28.74,362.08,27.83,362.08,26.72z M328.47,42.77
		c0,0.45-0.49,1.21-1.46,2.3s-2.07,1.64-3.29,1.64c-1.95,0-3.26-1.34-3.95-4.02c-0.37-1.48-0.56-3.68-0.56-6.6
		c0-2.73,0.19-4.85,0.58-6.35c0.73-2.79,2.1-4.19,4.12-4.19c1.37,0,2.48,0.45,3.31,1.36c0.83,0.91,1.25,1.59,1.25,2.05V42.77z"/>
	<path d="M382.03,42.02c-1.07,1.18-1.97,2.02-2.69,2.52c-1.18,0.83-2.44,1.25-3.78,1.25c-2.8,0-4.75-1.56-5.86-4.68
		c-0.61-1.66-0.98-3.63-1.11-5.9h14.5c0-0.52-0.07-1.27-0.2-2.25c-0.26-2.09-0.72-3.79-1.39-5.1c-0.89-1.74-2.16-3.1-3.8-4.07
		c-1.65-0.98-3.41-1.47-5.28-1.47c-3.27,0-6.07,1.21-8.39,3.62c-2.32,2.41-3.48,5.8-3.48,10.16c0,4.82,1.22,8.34,3.66,10.53
		c2.44,2.2,5.06,3.3,7.86,3.3c1.94,0,3.66-0.36,5.16-1.08c2.31-1.13,4.35-3.13,6.11-6.01L382.03,42.02z M369.38,26.39
		c0.55-1.53,1.56-2.3,3.05-2.3c1.45,0,2.41,0.67,2.89,2c0.48,1.33,0.74,3.67,0.78,7.01h-7.65
		C368.52,30.16,368.83,27.92,369.38,26.39z"/>
	<path d="M408.99,44.54V30.82c0-3.16-0.67-5.37-2.01-6.63c-1.34-1.26-3.23-1.88-5.67-1.88c-1.7,0-3.25,0.45-4.64,1.34
		c-1.4,0.9-2.55,2.03-3.45,3.4v-4.08h-10.76v1.36c1.22,0.15,2.03,0.45,2.43,0.89c0.4,0.45,0.6,1.25,0.6,2.41v16.69
		c0,1.29-0.25,2.16-0.74,2.59c-0.49,0.43-1.25,0.72-2.29,0.85v1.36h13.67v-1.36c-1.02-0.21-1.71-0.48-2.08-0.83
		s-0.55-1.15-0.55-2.38V29.35c0.45-0.72,1.08-1.44,1.9-2.15c0.82-0.71,1.72-1.07,2.7-1.07c1.31,0,2.19,0.58,2.64,1.75
		c0.26,0.65,0.39,1.62,0.39,2.91v13.75c0,1.24-0.18,2.03-0.55,2.38s-1.06,0.63-2.08,0.83v1.36h13.33v-1.36
		c-1.02-0.13-1.74-0.38-2.18-0.75C409.2,46.64,408.99,45.82,408.99,44.54z"/>
	<path d="M419.42,9.89c-1.46,0-2.61,0.44-3.46,1.33c-0.85,0.89-1.28,2.04-1.28,3.46c0,1.29,0.4,2.35,1.19,3.17s1.8,1.23,3.02,1.23
		c0.18,0,0.59-0.05,1.22-0.14c0.37,0,0.66,0.12,0.86,0.36c0.18,0.26,0.28,0.57,0.28,0.94c0,1.37-0.78,2.83-2.33,4.38
		c-0.87,0.87-2.15,1.9-3.85,3.08l0.67,1.25c2.57-1.44,4.57-2.93,6.01-4.46c2.25-2.42,3.38-5.1,3.38-8.04c0-2.03-0.55-3.64-1.65-4.81
		C422.38,10.48,421.03,9.89,419.42,9.89z"/>
	<path d="M438.23,33.15l-3.1-1.5c-1.5-0.72-2.51-1.42-3.05-2.11c-0.55-0.67-0.83-1.33-0.83-2c0-0.81,0.31-1.57,0.93-2.27
		c0.62-0.7,1.56-1.05,2.81-1.05c1.62,0,3.05,0.58,4.27,1.75c1.22,1.16,2.1,2.71,2.64,4.63h1.44v-8.21h-1.25
		c-0.13,0.35-0.29,0.62-0.49,0.82c-0.19,0.19-0.52,0.29-0.98,0.29c-0.33,0-1.18-0.2-2.52-0.6c-1.35-0.4-2.62-0.6-3.83-0.6
		c-2.76,0-4.9,0.8-6.43,2.4c-1.54,1.6-2.3,3.5-2.3,5.7c0,1.74,0.49,3.24,1.47,4.52c0.96,1.28,2.55,2.46,4.77,3.55l4.21,2.05
		c0.91,0.44,1.56,0.86,1.97,1.25c0.74,0.72,1.11,1.59,1.11,2.61c0,1.07-0.34,1.93-1.03,2.59c-0.68,0.66-1.76,0.98-3.22,0.98
		c-1.59,0-3.14-0.56-4.66-1.68c-1.52-1.12-2.55-3.04-3.1-5.75h-1.58v9.4h1.36c0.3-0.59,0.56-1.01,0.79-1.26
		c0.23-0.25,0.5-0.38,0.82-0.38c0.13,0,0.23,0.01,0.32,0.03c0.08,0.02,0.3,0.09,0.65,0.22l0.97,0.33c1.13,0.39,2.07,0.66,2.84,0.82
		c0.77,0.16,1.53,0.23,2.29,0.23c3.05,0,5.34-0.91,6.86-2.73s2.29-3.78,2.29-5.89c0-2.16-0.74-3.98-2.22-5.46
		C441.56,34.97,440.15,34.07,438.23,33.15z"/>
	<path d="M449.5,7.43l-0.97-1.76c0.79-0.19,1.4-0.78,1.4-1.62c0-1.14-1.03-1.68-2.36-1.68h-3.21v0.29c0.7,0,0.7,0.54,0.7,1.21v3.27
		c0,0.82,0,1.22-0.81,1.22v0.29h3.27V8.35c-0.92,0-0.92-0.4-0.92-1.22V5.78h0.35l1.58,2.86h1.88V8.35
		C449.98,8.35,449.69,7.76,449.5,7.43z M447.03,5.43c-0.15,0-0.34-0.02-0.43-0.05V2.72h0.36c1.11,0,1.3,0.73,1.3,1.3
		C448.26,4.75,447.82,5.43,447.03,5.43z"/>
	<path d="M447.15,0.1c-3.03,0-5.51,2.46-5.51,5.49c0,3.03,2.48,5.49,5.51,5.49c3.03,0,5.49-2.46,5.49-5.49
		C452.64,2.56,450.18,0.1,447.15,0.1z M447.15,10.4c-2.65,0-4.81-2.16-4.81-4.81c0-2.65,2.16-4.81,4.81-4.81
		c2.65,0,4.79,2.16,4.79,4.81C451.94,8.24,449.8,10.4,447.15,10.4z"/>
	<path class="st1" d="M67.67,31.15c-1.15,0-2.18,0.45-2.94,1.2L52.34,45.14c-4.79,4.14-9.34,6.33-16.4,6.38v0
		c-6.88-0.11-11.37-2.29-16.09-6.37L7.36,32.34c-0.76-0.74-1.79-1.2-2.94-1.2c-2.31,0-4.2,1.88-4.2,4.19c0,1.16,0.47,2.21,1.23,2.97
		l16.26,15.85c4.57,3.74,11.05,5.64,18.23,5.64c7.17,0,13.65-1.89,18.23-5.64l16.47-15.85c0.76-0.76,1.23-1.81,1.23-2.97
		C71.87,33.02,69.98,31.15,67.67,31.15z"/>
	<path class="st1" d="M21.46,37.87c4.76,4.54,7.54,7.44,14.44,7.54c7.17,0.1,9.98-2.97,14.82-7.6l9.58-9.72
		c0.76-0.76,1.23-1.81,1.23-2.97c0-2.32-1.88-4.2-4.2-4.2c-1.19,0-2.27,0.5-3.03,1.3L43.44,33.15c-1.86,2.03-4.53,3.31-7.51,3.31
		c-2.96,0-5.63-1.26-7.48-3.27L17.78,22.22c-0.77-0.8-1.84-1.3-3.04-1.3c-2.32,0-4.19,1.88-4.19,4.2c0,1.16,0.47,2.21,1.23,2.97
		L21.46,37.87z"/>
	<path class="st1" d="M33.74,29.47c0.56,0.6,1.36,0.96,2.25,0.96c0.88,0,1.67-0.36,2.24-0.95l11.85-11.71
		c0.77-0.76,1.24-1.82,1.24-2.98c0-2.32-1.88-4.2-4.2-4.2c-1.13,0-2.16,0.45-2.92,1.18l-6.9,6.99c-0.36,0.35-0.84,0.57-1.37,0.57
		c-0.56,0-1.06-0.23-1.41-0.61l-6.65-6.95c-0.76-0.73-1.79-1.18-2.91-1.18c-2.32,0-4.2,1.88-4.2,4.2c0,1.16,0.48,2.22,1.25,2.98
		L33.74,29.47z"/>
	<path class="st1" d="M35.94,11.03c3.04,0,5.51-2.47,5.51-5.52c0-3.05-2.47-5.52-5.51-5.52c-3.05,0-5.52,2.47-5.52,5.52
		C30.42,8.56,32.89,11.03,35.94,11.03z"/>
</g>
</svg>
