<svg xmlns="http://www.w3.org/2000/svg" viewBox="0 0 30.415 42.163" stroke="currentColor"><path d="M15.195 40.083c-.94 0-1.78-.48-2.27-1.29l-9.12-15.18c-2.11-3.17-2.81-7.07-1.94-10.93 1.15-5.07 5.31-9.21 10.36-10.29 4.11-.88 8.32.11 11.54 2.71a13.86 13.86 0 0 1 5.15 10.82c0 2.76-.8 5.43-2.33 7.72l-9.14 15.14a2.57 2.57 0 0 1-2.25 1.3zm-.01-35.99c-.84 0-1.69.09-2.53.27-4.3.92-7.85 4.44-8.83 8.77-.75 3.32-.16 6.67 1.67 9.42l9.14 15.22c.17.29.44.32.55.32.11 0 .38-.03.55-.32l9.16-15.18c1.33-2 2.02-4.28 2.02-6.65 0-3.62-1.61-7-4.41-9.27a11.573 11.573 0 0 0-7.32-2.58z"/><path d="M15.215 22.933c-3.86 0-7-3.14-7-7s3.14-7 7-7 7 3.14 7 7-3.14 7-7 7zm0-12c-2.76 0-5 2.24-5 5s2.24 5 5 5 5-2.24 5-5-2.24-5-5-5z"/></svg>