<svg xmlns="http://www.w3.org/2000/svg" viewBox="0 0 197.64 326.52" fill="currentColor"><path d="M155.52 0H42.12C18.89 0 0 18.9 0 42.12V284.4c0 23.23 18.9 42.12 42.12 42.12h113.4c23.23 0 42.12-18.9 42.12-42.12V42.12C197.65 18.89 178.75 0 155.52 0ZM87.8 30.72c.1-.74.35-1.47.64-2.11.24-.69.59-1.37 1.03-1.96.39-.64.88-1.18 1.37-1.72 2.65-2.6 6.53-3.83 10.21-3.09.69.15 1.42.39 2.11.64.64.29 1.33.64 1.91 1.03.64.44 1.23.88 1.72 1.42.54.54.98 1.08 1.42 1.72.39.59.74 1.28 1.03 1.96.25.64.49 1.38.64 2.11.15.69.2 1.42.2 2.16 0 .74-.05 1.47-.2 2.21-.15.74-.39 1.42-.64 2.11-.29.69-.64 1.33-1.03 1.97-.44.59-.88 1.18-1.42 1.72-.49.49-1.08.98-1.72 1.38-.59.44-1.28.79-1.91 1.03-.69.29-1.42.54-2.11.69-.74.1-1.47.2-2.21.2-2.99 0-5.89-1.23-8-3.29-.49-.54-.98-1.13-1.37-1.72-.39-.64-.79-1.28-1.03-1.97-.29-.69-.54-1.37-.64-2.11-.15-.74-.24-1.47-.24-2.21 0-.75.09-1.49.24-2.17zm30.7 269.37H79.17c-3.73 0-6.77-3.03-6.77-6.77 0-3.73 3.03-6.77 6.77-6.77h39.33c3.73 0 6.77 3.03 6.77 6.77 0 3.74-3.03 6.77-6.77 6.77zm55.47-39.97H23.68V66.41h150.29z"/></svg>